<?xml version="1.0" encoding="UTF-8" standalone="no"?>
<!-- Generator: Adobe Illustrator 16.0.4, SVG Export Plug-In . SVG Version: 6.00 Build 0)  -->

<svg
   xmlns:dc="http://purl.org/dc/elements/1.1/"
   xmlns:cc="http://creativecommons.org/ns#"
   xmlns:rdf="http://www.w3.org/1999/02/22-rdf-syntax-ns#"
   xmlns:svg="http://www.w3.org/2000/svg"
   xmlns="http://www.w3.org/2000/svg"
   xmlns:xlink="http://www.w3.org/1999/xlink"
   xmlns:sodipodi="http://sodipodi.sourceforge.net/DTD/sodipodi-0.dtd"
   xmlns:inkscape="http://www.inkscape.org/namespaces/inkscape"
   version="1.1"
   id="Hintergrund"
   x="0px"
   y="0px"
   width="2560px"
   height="765px"
   viewBox="0 0 2560 765"
   enable-background="new 0 0 2560 765"
   xml:space="preserve"
   inkscape:version="0.91 r13725"
   sodipodi:docname="bg_teaser.svg"><metadata
     id="metadata662"><rdf:RDF><cc:Work
         rdf:about=""><dc:format>image/svg+xml</dc:format><dc:type
           rdf:resource="http://purl.org/dc/dcmitype/StillImage" /><dc:title></dc:title></cc:Work></rdf:RDF></metadata><defs
     id="defs660" /><sodipodi:namedview
     pagecolor="#000200"
     bordercolor="#666666"
     borderopacity="1"
     objecttolerance="10"
     gridtolerance="10"
     guidetolerance="10"
     inkscape:pageopacity="0"
     inkscape:pageshadow="2"
     inkscape:window-width="1920"
     inkscape:window-height="1031"
     id="namedview658"
     showgrid="false"
     inkscape:zoom="0.78444658"
     inkscape:cx="1548.5397"
     inkscape:cy="497.35277"
     inkscape:window-x="0"
     inkscape:window-y="24"
     inkscape:window-maximized="1"
     inkscape:current-layer="g3069" /><g
     id="g15"
     transform="translate(-52.266151,26.770465)"
     style="opacity:0.7"><path
       stroke-miterlimit="10"
       d="m 531.424,334.388 c -5.12,-1.08 -9.13,-2.42 -10.41,-0.39 -1.59,2.53 -4.41,18.72 -2.39,19.521 2.13,0.84 3.59,1.08 8.72,2 4.06,0.72 6.7,2.27 9.21,0.359 1.96,-1.479 3.57,-16.93 3.52,-17.76 -0.211,-3.22 -4.6,-2.88 -8.65,-3.73 z"
       id="path17"
       inkscape:connector-curvature="0"
       style="fill:none;stroke:#ffffff;stroke-linecap:round;stroke-linejoin:round;stroke-miterlimit:10" /><path
       stroke-miterlimit="10"
       d="m 424.063,335.128 c -1,-0.14 -1.52,-0.99 -1.46,-1.729 0.06,-0.73 0.53,-1.17 1.21,-1.38 0.69,-0.2 1.34,-0.08 1.87,0.43 0.77,0.75 0.79,1.73 0.02,2.36 -0.439,0.359 -0.979,0.489 -1.64,0.319 z"
       id="path19"
       inkscape:connector-curvature="0"
       style="clip-rule:evenodd;fill:none;fill-rule:evenodd;stroke:#ffffff;stroke-linecap:round;stroke-linejoin:round;stroke-miterlimit:10" /><path
       stroke-miterlimit="10"
       d="m 432.093,336.548 c -1,-0.13 -1.52,-0.99 -1.459,-1.729 0.06,-0.73 0.54,-1.17 1.22,-1.37 0.69,-0.21 1.34,-0.09 1.87,0.43 0.77,0.75 0.79,1.72 0.01,2.351 -0.441,0.368 -0.98,0.488 -1.641,0.318 z"
       id="path21"
       inkscape:connector-curvature="0"
       style="clip-rule:evenodd;fill:none;fill-rule:evenodd;stroke:#ffffff;stroke-linecap:round;stroke-linejoin:round;stroke-miterlimit:10" /><path
       stroke-miterlimit="10"
       d="m 545.583,348.948 c 1.42,-6.58 5.19,-18.16 2.85,-19.76 -2.91,-1.98 -19.31,-5.23 -26.22,-6.16 -8.16,-1.1 -16.31,-2.61 -24.24,-4.73 -5.39,-1.45 -10.46,-2.43 -15.44,-3.25 -3.95,-0.92 -8.31,-1.77 -13.99,-2.45 -8.11,-0.98 -16.2,-2.61 -24.15,-4.63 -6.71,-1.7 -23,-4.78 -26.39,-4.02 -2.72,0.61 -3.35,12.73 -4.38,19.35 -0.82,5.23 -3.86,16.08 -1.65,19.23 1.71,2.45 28.03,6.33 33.42,7.39 l 19.19,3.74 2.22,0.44 8.97,1.74 8.97,1.76 2.23,0.43 19.25,3.76 c 5.42,1.06 31.5,7.41 33.99,5.77 3.211,-2.11 4.261,-13.41 5.37,-18.61 z"
       id="path23"
       inkscape:connector-curvature="0"
       style="fill:none;stroke:#ffffff;stroke-linecap:round;stroke-linejoin:round;stroke-miterlimit:10" /><polygon
       stroke-miterlimit="10"
       points="535.063,342.948 524.813,340.958 528.144,348.778 "
       id="polygon25"
       style="fill:none;stroke:#ffffff;stroke-linecap:round;stroke-linejoin:round;stroke-miterlimit:10" /><path
       stroke-miterlimit="10"
       d="m 441.093,338.548 c -1,-0.13 -1.52,-0.99 -1.459,-1.729 0.06,-0.73 0.54,-1.17 1.22,-1.37 0.69,-0.21 1.34,-0.09 1.87,0.43 0.77,0.75 0.79,1.72 0.01,2.351 -0.441,0.368 -0.98,0.488 -1.641,0.318 z"
       id="path27"
       inkscape:connector-curvature="0"
       style="clip-rule:evenodd;fill:none;fill-rule:evenodd;stroke:#ffffff;stroke-linecap:round;stroke-linejoin:round;stroke-miterlimit:10" /></g><g
     id="g29"
     transform="translate(-353.11518,300.84904)"
     style="opacity:0.6"><path
       stroke-miterlimit="10"
       d="m 747.403,238.238 48.69,5.71 c 2.2,0.27 5.34,2.42 5.07,4.63 l -7.98,66.25 c 0,0 0.66,9.23 -4.81,9 l -1,0 m -1.289,-0.034 -50.59,-6.065 c -2.2,-0.271 -3.54,-4.26 -3.28,-6.47 l 8.28,-69.88 c 0.26,-2.21 2.26,-3.78 4.46,-3.52 l 0.92,0.11"
       id="path31"
       inkscape:connector-curvature="0"
       style="clip-rule:evenodd;fill:none;fill-rule:evenodd;stroke:#ffffff;stroke-linecap:round;stroke-linejoin:round;stroke-miterlimit:10" /><polygon
       stroke-miterlimit="10"
       points="739.653,307.988 746.974,246.198 792.813,251.818 785.494,313.608 "
       id="polygon33"
       style="clip-rule:evenodd;fill:none;fill-rule:evenodd;stroke:#ffffff;stroke-linecap:round;stroke-linejoin:round;stroke-miterlimit:10" /><path
       stroke-miterlimit="10"
       d="m 768.684,244.738 1.99,0.24 c 0.56,0.06 0.95,0.56 0.88,1.109 -0.06,0.55 -0.56,0.95 -1.11,0.88 l -2,-0.24 c -0.55,-0.061 -0.939,-0.561 -0.88,-1.11 0.07,-0.549 0.57,-0.949 1.12,-0.879 z"
       id="path35"
       inkscape:connector-curvature="0"
       style="clip-rule:evenodd;fill:none;fill-rule:evenodd;stroke:#ffffff;stroke-linecap:round;stroke-linejoin:round;stroke-miterlimit:10" /><path
       stroke-miterlimit="10"
       d="m 764.644,315.019 c 1.33,2.479 -3.25,4.18 -4.2,1.939 -1.18,-2.77 2.69,-4.35 4.25,-1.75"
       id="path37"
       inkscape:connector-curvature="0"
       style="fill:none;stroke:#ffffff;stroke-linecap:round;stroke-linejoin:round;stroke-miterlimit:10" /></g><g
     id="g39"
     transform="translate(79.03661,-86.685321)"
     style="opacity:0.8"><g
       id="g41"><path
         stroke-miterlimit="10"
         d="m 2265.994,288.168 c 0,0 -25.94,5.49 -28.28,6.25 -4.79,1.561 -26.3,6.63 -26.3,6.63 -3.32,0.79 -4.9,-1.85 -5.78,-5.37 -0.88,-3.54 -0.71,-6.63 2.63,-7.41 0,0 9.25,-1.74 11.89,-2.74 1.7,-0.64 37.72,-8.87 37.72,-8.87 l 7.221,-1.7 c 3.29,-0.77 4.75,1.91 5.49,5.45 0.728,3.52 -1.321,6.99 -4.591,7.76 z"
         id="path43"
         inkscape:connector-curvature="0"
         style="fill:none;stroke:#ffffff;stroke-linecap:round;stroke-linejoin:round;stroke-miterlimit:10" /></g><g
       id="g45"><path
         stroke-miterlimit="10"
         d="m 2270.233,308.208 -52.09,12.46 c -3.271,0.79 -7.13,-1.27 -7.47,-4.79 -0.19,-1.92 -0.69,-6.47 2.609,-7.25 l 56.09,-13.31 c 3.25,-0.771 3.871,2.15 5.4,5.29 1.202,2.44 -1.319,6.83 -4.539,7.6 z"
         id="path47"
         inkscape:connector-curvature="0"
         style="fill:none;stroke:#ffffff;stroke-linecap:round;stroke-linejoin:round;stroke-miterlimit:10" /></g><g
       id="g49"><path
         stroke-miterlimit="10"
         d="m 2222.023,327.568 51.53,-12.39 c 3.2,-0.77 4.62,1.77 5.319,5.14 0.69,3.36 0.42,6.27 -2.76,7.04 l -36.84,8.43 -18.1,4.88 c -3.23,0.78 -3.971,-1.31 -4.801,-4.66 -1.039,-4.2 -0.159,-7.04 3.101,-7.83 l 1.78,-0.43"
         id="path51"
         inkscape:connector-curvature="0"
         style="fill:none;stroke:#ffffff;stroke-linecap:round;stroke-linejoin:round;stroke-miterlimit:10" /></g></g><g
     id="g75"
     transform="matrix(2.9823859,0,0,2.4941828,-5555.5155,-51.269849)"
     style="opacity:0.5"><path
       stroke-miterlimit="10"
       d="m 1923.924,209.738 c 1.1,-2.16 6.77,-12.56 7.56,-13.68 1.561,-2.2 6.82,-12.76 7.27,-13.45"
       id="path77"
       inkscape:connector-curvature="0"
       style="fill:none;stroke:#ffffff;stroke-linecap:round;stroke-linejoin:round;stroke-miterlimit:10" /><path
       stroke-miterlimit="10"
       d="m 1930.844,213.898 c 2.09,-4.74 15.08,-25.92 15.2,-27.69"
       id="path79"
       inkscape:connector-curvature="0"
       style="fill:none;stroke:#ffffff;stroke-linecap:round;stroke-linejoin:round;stroke-miterlimit:10" /><path
       stroke-miterlimit="10"
       d="m 1946.924,186.498 c 0.85,-1.1 1.35,-1.91 1.979,-2.89 0.31,-0.48 1.34,-3.11 1.34,-3.11 -0.13,-0.65 -2.729,-1.22 -3.229,-1.51 -1.65,-0.99 -3.54,-1.7 -5.1,-2.79 -1.021,1.88 -2.83,3.56 -3.37,5.54 0.459,0.26 7.8,4.72 8.38,4.76 z"
       id="path81"
       inkscape:connector-curvature="0"
       style="fill:none;stroke:#ffffff;stroke-linecap:round;stroke-linejoin:round;stroke-miterlimit:10" /><path
       stroke-miterlimit="10"
       d="m 1942.523,175.618 c 2.87,-3.8 9.4,-0.51 7.84,3.84"
       id="path83"
       inkscape:connector-curvature="0"
       style="fill:none;stroke:#ffffff;stroke-linecap:round;stroke-linejoin:round;stroke-miterlimit:10" /><path
       stroke-miterlimit="10"
       d="m 1923.773,210.208 c -0.87,1.39 -3.17,10.23 -3.17,12.93 1.359,-1.21 8.79,-7.45 10.24,-9.24"
       id="path85"
       inkscape:connector-curvature="0"
       style="fill:none;stroke:#ffffff;stroke-linecap:round;stroke-linejoin:round;stroke-miterlimit:10" /><path
       stroke-miterlimit="10"
       d="m 1924.073,209.648 c 1.29,-0.01 3,1.2 4.13,1.77 0.931,0.46 2.021,1.19 2.5,2.13"
       id="path87"
       inkscape:connector-curvature="0"
       style="fill:none;stroke:#ffffff;stroke-linecap:round;stroke-linejoin:round;stroke-miterlimit:10" /><path
       stroke-miterlimit="10"
       d="m 1927.974,210.428 c 5.04,-6.56 11.69,-20.56 14.95,-25.35"
       id="path89"
       inkscape:connector-curvature="0"
       style="fill:none;stroke:#ffffff;stroke-linecap:round;stroke-linejoin:round;stroke-miterlimit:10" /><path
       stroke-miterlimit="10"
       d="m 1920.993,221.838 c 0.03,-0.149 -0.01,-0.28 -0.12,-0.38"
       id="path91"
       inkscape:connector-curvature="0"
       style="fill:none;stroke:#ffffff;stroke-linecap:round;stroke-linejoin:round;stroke-miterlimit:10" /><path
       stroke-miterlimit="10"
       d="m 1921.373,219.588 c -0.27,0.63 0.24,1.4 0.75,1.73 0.25,-0.66 -0.85,-1.44 -1.189,-2.13 0.91,0.34 1.59,1.27 2.35,1.85 0.11,-0.89 -1.59,-1.53 -1.609,-2.45 0.699,0.32 1.38,0.88 2.069,1.24"
       id="path93"
       inkscape:connector-curvature="0"
       style="fill:none;stroke:#ffffff;stroke-linecap:round;stroke-linejoin:round;stroke-miterlimit:10" /></g><g
     id="g111"
     transform="translate(228.18635,-274.07857)"
     style="opacity:0.7"><path
       stroke-miterlimit="10"
       d="m 1596.823,432.158 c -3.84,-1.82 -2.909,-4.36 -5.27,-7.43 -2.14,-2.79 -5.44,-4.34 -7.66,-7.05 -2.29,-2.83 -3.649,-6.66 -3.71,-10.3 -0.11,-6.939 4.779,-12.24 10.76,-14.859 6.98,-3.07 16.971,-2.08 22.24,3.95 3.12,3.59 4.609,7.89 3.77,12.8 -0.43,2.47 -4.13,8.02 -4.689,10.689 -0.561,2.67 1.21,7.14 -0.54,8.6 -4.09,3.45 -13.23,4.39 -14.901,3.6 z"
       id="path113"
       inkscape:connector-curvature="0"
       style="fill:none;stroke:#ffffff;stroke-linecap:round;stroke-linejoin:round;stroke-miterlimit:10" /><path
       stroke-miterlimit="10"
       d="m 1597.963,433.308 c 0.61,2.63 0.921,4.43 1.711,7.07 3.779,0.66 9.189,-1.47 12.729,-2.5 0.1,-1.82 -2.1,-8.26 -2.1,-8.26"
       id="path115"
       inkscape:connector-curvature="0"
       style="fill:none;stroke:#ffffff;stroke-linecap:round;stroke-linejoin:round;stroke-miterlimit:10" /><path
       stroke-miterlimit="10"
       d="m 1601.903,440.798 c 1.011,4.16 9.25,1.15 8.47,-2.06"
       id="path117"
       inkscape:connector-curvature="0"
       style="fill:none;stroke:#ffffff;stroke-linecap:round;stroke-linejoin:round;stroke-miterlimit:10" /><path
       stroke-miterlimit="10"
       d="m 1600.514,435.048 c 1.64,-0.29 3.27,-0.58 4.9,-0.97 1.97,-0.47 4.5,-0.97 6.27,-1.97"
       id="path119"
       inkscape:connector-curvature="0"
       style="fill:none;stroke:#ffffff;stroke-linecap:round;stroke-linejoin:round;stroke-miterlimit:10" /><path
       stroke-miterlimit="10"
       d="m 1598.974,437.798 c 1.8,0.811 7.819,-0.39 9.71,-1.7"
       id="path121"
       inkscape:connector-curvature="0"
       style="fill:none;stroke:#ffffff;stroke-linecap:round;stroke-linejoin:round;stroke-miterlimit:10" /><path
       stroke-miterlimit="10"
       d="m 1588.804,411.729 c 3.42,-0.73 16.62,-4.54 20.989,-5.36"
       id="path123"
       inkscape:connector-curvature="0"
       style="fill:none;stroke:#ffffff;stroke-linecap:round;stroke-linejoin:round;stroke-miterlimit:10" /><path
       stroke-miterlimit="10"
       d="m 1608.514,403.908 c -1.7,2.88 -2.59,9.35 -2.471,12.44 0.101,2.72 -0.159,8.14 0.32,10.16"
       id="path125"
       inkscape:connector-curvature="0"
       style="fill:none;stroke:#ffffff;stroke-linecap:round;stroke-linejoin:round;stroke-miterlimit:10" /><path
       stroke-miterlimit="10"
       d="m 1589.594,409.588 c 1.57,1.01 5.21,6.38 6.59,8.29 1.59,2.18 3.93,8.29 4.37,10.04"
       id="path127"
       inkscape:connector-curvature="0"
       style="fill:none;stroke:#ffffff;stroke-linecap:round;stroke-linejoin:round;stroke-miterlimit:10" /></g><g
     id="g265"
     transform="translate(160.62279,237.10983)"
     style="opacity:0.7"><g
       id="g267"><path
         stroke-miterlimit="10"
         d="m 2063.203,350.229 0.521,-6.22 c -0.84,0.04 -1.69,0.11 -2.53,0.04 -2.62,-0.22 -4.439,-1.67 -5.25,-4.149 -0.26,-0.87 -0.6,-1.68 -1.12,-2.43 -0.39,-0.63 -2.109,-1.96 -2.069,-2.36 0.029,-0.41 0.8,-0.38 1.05,-0.36 3.85,0.33 3.28,5.51 7.489,5.86 0.951,0.08 2.061,-0.01 2.99,-0.26 0.48,-1.3 1.37,-2.41 2.561,-3.09 -7.42,-1.37 -11.58,-4.2 -10.91,-12.34 0.23,-2.729 1.28,-5.2 3.26,-7.07 -0.24,-1.02 -0.33,-2.1 -0.25,-3.13 0.12,-1.4 0.561,-2.74 1.32,-3.93 3.01,0.25 4.88,1.63 7.1,3.56 2.04,-0.31 4.12,-0.32 6.2,-0.14 1.851,0.15 3.729,0.5 5.51,1.061 2.5,-1.5 4.53,-2.51 7.511,-2.26 0.55,1.31 0.76,2.7 0.649,4.1 -0.09,1.03 -0.36,2.08 -0.77,3.01 1.649,2.21 2.28,4.83 2.05,7.55 -0.67,8.101 -5.18,10.32 -12.76,10.38 1.47,1.2 2.27,3.12 2.109,5.04 l -0.55,8.931"
         id="path269"
         inkscape:connector-curvature="0"
         style="clip-rule:evenodd;fill:none;fill-rule:evenodd;stroke:#ffffff;stroke-linecap:round;stroke-linejoin:round;stroke-miterlimit:10" /></g><path
       stroke-miterlimit="10"
       d="m 2092.384,306.979 c -7.311,-5.55 -20.15,-11.181 -30.99,-6.271 -5.83,1.75 -11.51,7.78 -13.851,12.59 -1.81,3.7 -2.649,7.26 -3.159,11.351 -0.9,7.27 1.25,15.02 5.08,20.939 4.56,7.05 10.069,8.601 18.829,10.601 6.051,1.38 13.58,0.57 18.811,-2.75 17.12,-10.841 18.32,-36.561 5.28,-46.46 z"
       id="path271"
       inkscape:connector-curvature="0"
       style="fill:none;stroke:#ffffff;stroke-linecap:round;stroke-linejoin:round;stroke-miterlimit:10" /><path
       stroke-miterlimit="10"
       d="m 2063.214,305.068 c 9.09,-4.13 19.87,0.6 26,5.26 10.939,8.31 9.93,29.9 -4.431,39.01 -4.39,2.78 -10.71,3.46 -15.789,2.3 -7.351,-1.67 -11.971,-2.98 -15.801,-8.89 -3.21,-4.97 -5.01,-11.479 -4.26,-17.58 0.43,-3.439 1.13,-6.43 2.65,-9.54 1.97,-4.03 5.239,-7.51 8.89,-9.229 l 2.741,-1.331 z"
       id="path273"
       inkscape:connector-curvature="0"
       style="fill:none;stroke:#ffffff;stroke-linecap:round;stroke-linejoin:round;stroke-miterlimit:10" /></g><g
     id="g305"
     transform="translate(235.83505,319.9708)"
     style="opacity:0.7"><path
       stroke-miterlimit="10"
       d="m 1724.724,278.088 c 6.13,-1.84 12.97,-3.54 19.35,-5.46"
       id="path307"
       inkscape:connector-curvature="0"
       style="fill:none;stroke:#ffffff;stroke-linecap:round;stroke-linejoin:round;stroke-miterlimit:10" /><path
       stroke-miterlimit="10"
       d="m 1726.903,285.979 c 2.62,-0.83 4.54,-1.141 7.09,-2.22 1.311,-0.55 3.4,-0.46 4.601,-1.39 0.689,-0.53 1.88,-0.82 2.79,-0.74"
       id="path309"
       inkscape:connector-curvature="0"
       style="fill:none;stroke:#ffffff;stroke-linecap:round;stroke-linejoin:round;stroke-miterlimit:10" /><path
       stroke-miterlimit="10"
       d="m 1729.544,292.598 c 1.949,-0.38 4.399,-2.36 6.72,-2.64 2.64,-0.32 5.34,-0.28 7.85,-1.04 1.67,-0.51 3.88,-1.86 5.311,-2.07"
       id="path311"
       inkscape:connector-curvature="0"
       style="fill:none;stroke:#ffffff;stroke-linecap:round;stroke-linejoin:round;stroke-miterlimit:10" /><path
       stroke-miterlimit="10"
       d="m 1732.323,300.438 c 4.92,-2.28 9.261,-3.46 13.99,-4.88 1.34,-0.41 5.03,-1.77 5.851,-1.76"
       id="path313"
       inkscape:connector-curvature="0"
       style="fill:none;stroke:#ffffff;stroke-linecap:round;stroke-linejoin:round;stroke-miterlimit:10" /><path
       stroke-miterlimit="10"
       d="m 1734.884,310.218 c 1.939,-0.39 4.399,-2.36 6.72,-2.65 2.64,-0.31 4.95,-1.53 7.47,-2.29 1.67,-0.51 4.58,-1.63 6.011,-1.83"
       id="path315"
       inkscape:connector-curvature="0"
       style="fill:none;stroke:#ffffff;stroke-linecap:round;stroke-linejoin:round;stroke-miterlimit:10" /><path
       stroke-miterlimit="10"
       d="m 1737.664,318.058 c 4.709,-1.42 9.26,-3.47 13.989,-4.89 1.34,-0.399 5.03,-1.77 5.85,-1.75"
       id="path317"
       inkscape:connector-curvature="0"
       style="fill:none;stroke:#ffffff;stroke-linecap:round;stroke-linejoin:round;stroke-miterlimit:10" /><path
       stroke-miterlimit="10"
       d="m 1765.334,307.168 c 0.58,-0.07 4.55,-1.27 5.039,-1.689 0.37,-0.32 -0.62,-2.061 -0.88,-2.97 -0.319,-1.16 -0.54,-2.31 -0.899,-3.5 -1.271,-4.22 -0.67,-1.86 -2.19,-6.08 -0.63,-1.77 -0.84,-3.6 -1.31,-5.41 -0.33,-1.23 -0.69,-2.44 -1.061,-3.67 -0.729,-2.41 -1.26,-4.91 -2.199,-7.24 -0.641,-1.64 -2.011,-6.68 -2.261,-6.83 -0.39,-0.24 -6.21,2.09 -6.409,2.41 -0.261,0.41 2.339,5.89 2.989,8 0.73,2.33 1.44,4.84 2.261,7.32 0.819,2.46 1.839,4.91 2.63,7.41 0.76,2.39 -0.351,-1.6 0.419,0.84 0.711,2.31 1.201,4.7 1.9,7.01 0.311,1.039 1.191,4.489 1.971,4.399 z"
       id="path319"
       inkscape:connector-curvature="0"
       style="fill:none;stroke:#ffffff;stroke-linecap:round;stroke-linejoin:round;stroke-miterlimit:10" /><path
       stroke-miterlimit="10"
       d="m 1716.424,282.608 c 4.62,16.13 6.63,24.479 12.149,42.61 2.55,8.38 8.101,6.03 14.93,3.98 23.601,-7.08 2.931,-0.24 26.61,-7.05 3.7,-1.061 6.4,-2.63 7.96,-5.43 0.61,-1.09 0.69,-5.89 0.38,-6.9 l -15.02,-49.55 c -2.16,-7.141 -8.52,-5.53 -9.59,-5.21 -16,4.8 -33.94,10.15 -33.94,10.15 -7.77,2.34 -6.609,6.1 -6.609,6.1 0.75,2.53 1.22,3.18 1.89,5.52"
       id="path321"
       inkscape:connector-curvature="0"
       style="clip-rule:evenodd;fill:none;fill-rule:evenodd;stroke:#ffffff;stroke-linecap:round;stroke-linejoin:round;stroke-miterlimit:10" /><path
       stroke-miterlimit="10"
       d="m 1755.974,268.638 c -2.23,0.71 -3.96,1.47 -4.61,0.69 -0.8,-0.97 -2.66,-7.6 -1.79,-8.03 0.92,-0.46 1.561,-0.64 3.82,-1.279 1.78,-0.5 2.9,-1.28 4.09,-0.61 0.92,0.53 2.181,6.9 2.19,7.25 0.029,1.349 -1.931,1.429 -3.7,1.979 z"
       id="path323"
       inkscape:connector-curvature="0"
       style="fill:none;stroke:#ffffff;stroke-linecap:round;stroke-linejoin:round;stroke-miterlimit:10" /><polygon
       points="1757.854,264.988 1752.463,266.608 1753.894,262.479 "
       id="polygon325"
       style="fill:#ffffff" /><path
       stroke-miterlimit="10"
       d="m 1768.233,309.098 c -2.25,0.64 -4.12,0.96 -4.22,1.97 -0.12,1.24 2,7.79 2.97,7.67 1.02,-0.12 1.65,-0.33 3.89,-1.03 1.761,-0.56 3.13,-0.53 3.74,-1.74 0.48,-0.95 -2,-6.95 -2.189,-7.25 -0.731,-1.14 -2.41,-0.12 -4.191,0.38 z"
       id="path327"
       inkscape:connector-curvature="0"
       style="fill:none;stroke:#ffffff;stroke-linecap:round;stroke-linejoin:round;stroke-miterlimit:10" /><polygon
       points="1771.823,311.108 1766.434,312.729 1769.924,315.378 "
       id="polygon329"
       style="fill:#ffffff" /></g><g
     id="g331"
     transform="translate(1046.5977,-175.9202)"
     style="opacity:0.7"><path
       stroke-miterlimit="10"
       d="m 753.874,476.868 c 6.48,-2.69 10.09,-3.82 15.54,-6.43 2.9,-1.37 7.35,-2.26 10.09,-4.101 1.569,-1.04 16.589,-9.18 18.52,-9.51"
       id="path333"
       inkscape:connector-curvature="0"
       style="fill:none;stroke:#ffffff;stroke-linecap:round;stroke-linejoin:round;stroke-miterlimit:10" /><path
       stroke-miterlimit="10"
       d="m 737.884,477.618 c -3.86,1.57 -2.45,4.43 -2.45,4.43 2.3,5.67 -1.31,-2.58 1.12,3.32 0.98,2.38 2.7,4.09 4.52,3.34 3.72,-1.5 2.92,-1.19 2.92,-1.19 0,0 0.39,-0.15 3.01,-1.17 0.99,-0.38 1.689,-0.9 2.03,-1.74 0.13,-0.33 0,-1.73 -0.12,-2.021 l -2.46,-5.99 c -0.83,-2.02 -2.54,-1.42 -2.83,-1.31 l -5.74,2.331 z"
       id="path335"
       inkscape:connector-curvature="0"
       style="clip-rule:evenodd;fill:none;fill-rule:evenodd;stroke:#ffffff;stroke-linecap:round;stroke-linejoin:round;stroke-miterlimit:10" /><path
       stroke-miterlimit="10"
       d="m 761.454,495.338 c 7.45,-3.08 11.57,-4.42 17.86,-7.37 3.34,-1.55 8.41,-2.68 11.59,-4.71 1.82,-1.14 19.19,-10.22 21.38,-10.67"
       id="path337"
       inkscape:connector-curvature="0"
       style="fill:none;stroke:#ffffff;stroke-linecap:round;stroke-linejoin:round;stroke-miterlimit:10" /><path
       stroke-miterlimit="10"
       d="m 745.463,496.088 c -3.86,1.57 -2.45,4.43 -2.45,4.43 2.3,5.68 -1.31,-2.58 1.12,3.32 0.979,2.38 2.689,4.09 4.52,3.34 3.72,-1.5 2.91,-1.19 2.92,-1.19 0,0 0.39,-0.14 3.01,-1.17 0.99,-0.38 1.69,-0.9 2.03,-1.74 0.13,-0.33 0,-1.73 -0.12,-2.02 l -2.46,-5.99 c -0.83,-2.021 -2.54,-1.42 -2.83,-1.3 l -5.74,2.32 z"
       id="path339"
       inkscape:connector-curvature="0"
       style="clip-rule:evenodd;fill:none;fill-rule:evenodd;stroke:#ffffff;stroke-linecap:round;stroke-linejoin:round;stroke-miterlimit:10" /><path
       stroke-miterlimit="10"
       d="m 769.023,513.808 c 6.49,-2.69 10.09,-3.82 15.55,-6.43 2.9,-1.37 7.351,-2.25 10.09,-4.1 1.56,-1.04 16.59,-9.18 18.52,-9.51"
       id="path341"
       inkscape:connector-curvature="0"
       style="fill:none;stroke:#ffffff;stroke-linecap:round;stroke-linejoin:round;stroke-miterlimit:10" /><path
       stroke-miterlimit="10"
       d="m 753.043,514.558 c -3.87,1.57 -2.45,4.43 -2.45,4.43 2.291,5.68 -1.31,-2.58 1.12,3.32 0.98,2.38 2.69,4.09 4.52,3.35 3.72,-1.51 2.91,-1.2 2.91,-1.2 0,0 0.4,-0.14 3.01,-1.17 1,-0.38 1.7,-0.9 2.04,-1.74 0.13,-0.33 0,-1.729 -0.12,-2.01 l -2.46,-5.99 c -0.83,-2.03 -2.54,-1.43 -2.83,-1.31 l -5.74,2.32 z"
       id="path343"
       inkscape:connector-curvature="0"
       style="clip-rule:evenodd;fill:none;fill-rule:evenodd;stroke:#ffffff;stroke-linecap:round;stroke-linejoin:round;stroke-miterlimit:10" /></g><polyline
     opacity="0.8"
     fill="none"
     stroke="#FFFFFF"
     stroke-linecap="round"
     stroke-linejoin="round"
     stroke-miterlimit="10"
     points="  2007.903,190.458 2042.164,225.738 2158.373,173.928 2127.653,85.698 2096.653,42.738 "
     id="polyline345" /><polyline
     opacity="0.8"
     fill="none"
     stroke="#FFFFFF"
     stroke-linecap="round"
     stroke-linejoin="round"
     stroke-miterlimit="10"
     points="  2010.813,187.798 2128.414,134.488 2155.903,172.479 "
     id="polyline347" /><path
     opacity="0.8"
     fill="none"
     stroke="#FFFFFF"
     stroke-linecap="round"
     stroke-linejoin="round"
     stroke-miterlimit="10"
     d="  M1985.443,91.878l22.66,95.72L1985.443,91.878z"
     id="path351" /><polyline
     opacity="0.8"
     fill="none"
     stroke="#FFFFFF"
     stroke-linecap="round"
     stroke-linejoin="round"
     stroke-miterlimit="10"
     points="  1983.203,91.769 2096.653,42.738 2128.414,134.488 "
     id="polyline353" /><g
     id="g433"
     transform="matrix(0.70962793,0,0,0.78327525,-264.06734,436.80063)"
     style="opacity:0.7"><path
       inkscape:connector-curvature="0"
       d="m 1703.1503,122.6057 0,0.016 c 1.4759,-3.68294 2.337,-7.52822 2.337,-11.47015 l 0,-16.543249 c 0,-27.399753 -37.5945,-49.629732 -83.9621,-49.629732 -46.3675,0 -83.962,22.229979 -83.962,49.629732 0,-1.35706 0.164,-2.68208 0.3416,-4.00657 -17.3417,9.07965 -28.3289,22.327179 -28.3289,37.093059 l 0,16.54324 c 0,15.34799 11.8071,29.06389 30.3243,38.15957 l 0,0 c -1.4759,3.68346 -2.337,7.52821 -2.337,11.47016 l 0,16.54325 c 0,5.81598 1.7768,11.35745 4.8925,16.54324 -3.1157,5.18579 -4.8925,10.72726 -4.8925,16.54324 l 0,16.54324 c 0,27.39975 37.5945,49.62973 83.962,49.62973 46.3676,0 83.9621,-22.22998 83.9621,-49.62973 l 0,-16.54324 c 0,-5.91317 -1.845,-11.55131 -5.0426,-16.80172 -0.028,0.0326 -0.055,0.0807 -0.082,0.11321 2.3505,-3.94195 4.1955,-8.04571 4.7832,-12.39141 17.3417,-9.09568 28.3289,-22.32665 28.3289,-37.09306 l 0,-16.54324 c 0,-15.34747 -11.8072,-29.07991 -30.3243,-38.1756 z m -81.6251,-69.355479 c 45.3566,0 76.9652,21.793658 76.9652,41.35811 0,19.548419 -31.6086,41.358109 -76.9652,41.358109 -45.3565,0 -76.9651,-21.80969 -76.9651,-41.358109 0,-19.564452 31.6086,-41.35811 76.9651,-41.35811 z m -104.9524,74.444599 c 0,-9.66126 7.7485,-19.82294 20.9904,-27.67426 l 0,11.13102 c 0,27.39974 37.5945,49.62972 83.962,49.62972 6.9286,0 13.6246,-0.54954 20.0612,-1.4863 -12.8321,5.832 -29.1352,9.75793 -48.0484,9.75793 -45.3566,0 -76.9652,-21.80968 -76.9652,-41.35811 z m 181.9176,115.8027 c 0,19.54843 -31.6086,41.35811 -76.9652,41.35811 -45.3565,0 -76.9651,-21.80968 -76.9651,-41.35811 0,-3.24713 1.1755,-6.54284 2.8289,-9.80652 -0.014,-0.016 -0.041,-0.0486 -0.055,-0.0807 14.0894,15.71919 42.0221,26.43042 74.1909,26.43042 32.2099,0 60.0061,-10.79188 74.0681,-26.54363 -0.014,0.016 -0.014,0.016 -0.028,0.0326 1.7221,3.31175 2.9246,6.65606 2.9246,9.96781 z m -28.8891,-18.02955 c -12.8457,5.84856 -29.1492,9.75794 -48.0761,9.75794 -45.3565,0 -76.9651,-21.81021 -76.9651,-41.35812 0,-2.81132 0.8199,-5.65469 2.0636,-8.46549 6.8604,2.73015 14.4446,4.87923 22.5486,6.31693 10.4402,20.38801 42.4454,35.23505 80.3402,35.23505 6.9558,0 13.6794,-0.54955 20.1435,-1.50233 -0.014,0 -0.028,0.016 -0.055,0.016 z m -20.0888,-23.32856 c -17.9568,0 -33.6175,-3.48959 -46.1629,-8.83719 39.453,-2.7467 70.6108,-21.47055 73.8083,-45.05759 9.5249,-4.99193 17.1506,-11.21218 22.0567,-18.28804 -0.014,0 -0.014,0 -0.014,0 16.9455,8.14238 27.2767,19.77434 27.2767,30.82471 0,19.54843 -31.6086,41.35811 -76.9652,41.35811 z m -13.0367,-95.47881 c 0,-1.7448 -1.1755,-3.08583 -3.5261,-3.97451 -2.3505,-0.90471 -7.5845,-2.06791 -15.6881,-3.457539 -7.2838,-1.2118 -12.9827,-2.42359 -17.0824,-3.61883 -4.0997,-1.19526 -7.4341,-2.87595 -9.9897,-5.00847 -2.5556,-2.1651 -3.8399,-4.68537 -3.8399,-7.52873 0,-3.74808 2.2958,-7.140992 6.8603,-10.145669 4.5646,-2.988636 11.7525,-4.814597 21.5647,-5.492874 l 0,-5.912136 13.2559,0 0,5.913176 c 14.8137,0.872651 24.4072,4.911276 28.7662,12.181513 l -18.2574,3.61883 c -3.5666,-4.975893 -9.0604,-7.464102 -16.5216,-7.464102 -3.7447,0 -6.7511,0.549546 -9.0059,1.680178 -2.2687,1.098574 -3.4026,2.455634 -3.4026,4.039134 0,1.61555 1.0932,2.84337 3.2798,3.71603 2.1729,0.85611 6.8604,1.90661 14.0212,3.19904 7.8714,1.38964 14.0483,2.69811 18.5171,3.94195 4.4824,1.22782 8.049,2.94056 10.7275,5.12117 2.6649,2.18112 4.0039,4.733429 4.0039,7.641429 0,4.49149 -2.7607,8.20699 -8.2676,11.19564 -5.507,2.98864 -13.4607,4.74997 -23.8606,5.28298 l 0,7.65694 -13.2559,0 0,-7.6254 c -17.3416,-0.85612 -28.0695,-5.75137 -32.2099,-14.63716 l 20.4985,-2.58488 c 1.8997,5.59006 8.1858,8.38484 18.8586,8.38484 4.9879,0 8.6779,-0.59762 11.0284,-1.79339 2.3505,-1.19577 3.5256,-2.63296 3.5256,-4.32916 z"
       id="path4095"
       style="opacity:0.3;fill:#ffffff" /></g><g
     id="g459"
     transform="translate(1193.1979,-135.12711)"
     style="opacity:0.8"><path
       stroke-miterlimit="10"
       d="m 889.664,424.618 c 2.43,0.67 9.13,2.7 14.81,3.49 10.1,1.4 15.78,4.42 40.78,11.729 3.43,1 24.95,5.19 28.39,6.15"
       id="path461"
       inkscape:connector-curvature="0"
       style="fill:none;stroke:#ffffff;stroke-linecap:round;stroke-linejoin:round;stroke-miterlimit:10" /><path
       stroke-miterlimit="10"
       d="m 890.704,435.878 c 3.99,1.58 9.08,2.15 13.34,3.29 5.86,1.57 11.89,3.11 17.68,4.68 3.73,1.02 39.48,10.4 43.16,11.39"
       id="path463"
       inkscape:connector-curvature="0"
       style="fill:none;stroke:#ffffff;stroke-linecap:round;stroke-linejoin:round;stroke-miterlimit:10" /><path
       stroke-miterlimit="10"
       d="m 894.454,421.298 c -1.98,6.75 -5.14,18.65 -6.23,25.601 -1.71,10.95 -9.04,28.83 -11.89,39.52 l 2,-2"
       id="path465"
       inkscape:connector-curvature="0"
       style="fill:none;stroke:#ffffff;stroke-linecap:round;stroke-linejoin:round;stroke-miterlimit:10" /><path
       stroke-miterlimit="10"
       d="m 970.644,445.968 c -1.97,6.75 -4.12,14.64 -5.19,21.58 -1.69,10.94 -7.55,28.95 -10.38,39.641"
       id="path467"
       inkscape:connector-curvature="0"
       style="fill:none;stroke:#ffffff;stroke-linecap:round;stroke-linejoin:round;stroke-miterlimit:10" /><path
       stroke-miterlimit="10"
       d="m 881.333,485.418 c 6.96,1.86 11.85,3.35 17.44,4.45 9.95,1.98 14.98,4.17 25.9,7.08 2.97,0.79 27.31,7.73 30.25,8.53 l -2,-1"
       id="path469"
       inkscape:connector-curvature="0"
       style="fill:none;stroke:#ffffff;stroke-linecap:round;stroke-linejoin:round;stroke-miterlimit:10" /><path
       stroke-miterlimit="10"
       d="m 900.254,433.578 c -0.82,-0.18 -1.19,-0.96 -1.09,-1.59 0.09,-0.63 0.52,-0.98 1.1,-1.11 0.59,-0.13 1.12,0.021 1.52,0.49 0.59,0.7 0.55,1.55 -0.14,2.05 -0.39,0.28 -0.851,0.35 -1.39,0.16 z"
       id="path471"
       inkscape:connector-curvature="0"
       style="clip-rule:evenodd;fill:none;fill-rule:evenodd;stroke:#ffffff;stroke-linecap:round;stroke-linejoin:round;stroke-miterlimit:10" /><path
       stroke-miterlimit="10"
       d="m 907.854,435.348 c -0.82,-0.18 -1.19,-0.96 -1.1,-1.6 0.1,-0.62 0.53,-0.97 1.109,-1.1 0.58,-0.14 1.12,0.01 1.521,0.49 0.59,0.7 0.55,1.55 -0.14,2.04 -0.39,0.29 -0.85,0.36 -1.39,0.17 z"
       id="path473"
       inkscape:connector-curvature="0"
       style="clip-rule:evenodd;fill:none;fill-rule:evenodd;stroke:#ffffff;stroke-linecap:round;stroke-linejoin:round;stroke-miterlimit:10" /><g
       id="g475"><path
         stroke-miterlimit="10"
         d="m 923.233,465.388 0.23,-0.89 c 0,0 0.541,-2.91 1.55,-5.86 0.74,-2.14 1.43,-5.38 1.43,-5.38 0.061,-0.22 0.49,-0.59 0.88,-0.49 0,0 9.48,2.36 13.19,3.54 0.93,0.29 4.77,0.99 7.17,1.63 4.85,1.3 9.16,2.74 9.16,2.74 2.82,0.75 1.99,1.85 1.93,2.07 l -2.86,10.82 c -0.06,0.229 -0.35,1.479 -1.61,1.14 0,0 -15.04,-4.41 -18.06,-4.82 -3.02,-0.42 -11.77,-3.15 -11.77,-3.15 -0.91,-0.24 -1.4,-0.77 -1.24,-1.35 z"
         id="path477"
         inkscape:connector-curvature="0"
         style="clip-rule:evenodd;fill:none;fill-rule:evenodd;stroke:#ffffff;stroke-linecap:round;stroke-linejoin:round;stroke-miterlimit:10" /></g><defs
       id="defs479"><filter
         id="Adobe_OpacityMaskFilter_1_"
         filterUnits="userSpaceOnUse"
         x="923.203"
         y="452.75101"
         width="35.729"
         height="22.014999"><feColorMatrix
           type="matrix"
           values="1 0 0 0 0  0 1 0 0 0  0 0 1 0 0  0 0 0 1 0"
           id="feColorMatrix482" /></filter></defs><mask
       maskUnits="userSpaceOnUse"
       x="923.203"
       y="452.751"
       width="35.729"
       height="22.015"
       id="SVGID_8_"><g
         id="g485"
         style="filter:url(#Adobe_OpacityMaskFilter_1_)"><path
           stroke-miterlimit="10"
           d="m 893.204,470.308 c 8.24,-4 18.93,-11.57 24.6,-16.29 9.08,-7.56 17.89,-16.41 27.87,-22.47 16.04,-9.729 28.3,-24.649 44.01,-34.29 l -96.48,73.05 z m 8.69,-0.9 c 8.8,-4.2 16.35,-12.16 24.03,-18.04 8.32,-6.36 16.31,-12.87 24.66,-19.14 l 41.4,-31.08 -90.09,68.26 z m 4,4.51 c 16.57,-12.45 32.16,-25.99 48.35,-38.81 7.64,-6.05 14.9,-12.44 22.76,-18.34 4.689,-3.53 14.29,-8.45 16.77,-13.22 l -87.88,70.37 z m 4.689,4.6 c 29.5,-21.88 59.55,-44.77 87.87,-67.89 l -87.87,67.89 z m 0.201,-3.9 c 28.31,-21.27 57.54,-45.1 84.69,-65.49 l -84.69,65.49 z m -5.89,11.31 c 8.24,-4 18.93,-11.58 24.59,-16.31 9.08,-7.56 17.88,-16.42 27.86,-22.48 16.041,-9.74 28.28,-24.67 44,-34.31 l -96.45,73.1 z m 8.689,-0.9 c 8.8,-4.21 16.34,-12.18 24.02,-18.05 8.31,-6.37 16.3,-12.88 24.65,-19.16 l 41.38,-31.1 -90.05,68.31 z m 3.99,4.5 c 16.58,-12.46 32.15,-26.01 48.33,-38.83 7.64,-6.06 14.9,-12.45 22.76,-18.36 4.69,-3.53 14.28,-8.439 16.76,-13.22 l -87.85,70.41 z m 4.7,4.61 c 29.49,-21.9 59.53,-44.8 87.83,-67.94 l -87.83,67.94 z m 0.201,-3.9 c 28.3,-21.29 57.52,-45.14 84.65,-65.54 l -84.65,65.54 z m -6.34,10.7 c 8.24,-4 18.92,-11.59 24.58,-16.311 9.08,-7.57 17.87,-16.43 27.85,-22.5 16.03,-9.74 28.27,-24.68 43.98,-34.33 l -96.41,73.141 z m 8.689,-0.9 c 8.79,-4.21 16.33,-12.18 24.01,-18.06 8.31,-6.37 16.3,-12.891 24.64,-19.17 l 41.36,-31.12 -90.01,68.35 z m 3.99,4.5 c 16.57,-12.46 32.14,-26.02 48.31,-38.85 7.64,-6.061 14.89,-12.46 22.74,-18.37 4.7,-3.53 14.28,-8.45 16.76,-13.23 l -87.81,70.45 z m 4.701,4.61 c 29.47,-21.92 59.5,-44.83 87.79,-67.98 l -87.79,67.98 z m 84.809,-69.48 c -27.12,20.42 -56.33,44.28 -84.62,65.58 l 84.62,-65.58 z m -89.78,76.45 c 8.23,-4.01 18.9,-11.6 24.56,-16.33 9.07,-7.58 17.86,-16.44 27.84,-22.51 16.02,-9.75 28.26,-24.69 43.96,-34.35 l -96.36,73.19 z m 8.681,-0.91 c 8.79,-4.22 16.33,-12.19 24,-18.08 8.3,-6.37 16.29,-12.89 24.63,-19.17 l 41.34,-31.14 -89.97,68.39 z m 3.989,4.51 c 16.56,-12.48 32.12,-26.05 48.291,-38.89 7.63,-6.06 14.88,-12.46 22.729,-18.38 4.69,-3.53 14.27,-8.46 16.75,-13.24 l -87.77,70.51 z m 4.701,4.6 c 29.46,-21.93 59.47,-44.86 87.75,-68.021 l -87.75,68.021 z m 0.19,-3.9 c 28.28,-21.32 57.47,-45.189 84.58,-65.62 l -84.58,65.62 z m -5.871,11.311 c 8.22,-4.01 18.9,-11.601 24.55,-16.34 9.07,-7.58 17.86,-16.45 27.83,-22.52 16.01,-9.76 28.24,-24.71 43.94,-34.38 l -96.32,73.24 z m 8.681,-0.911 c 8.78,-4.22 16.31,-12.2 23.99,-18.09 8.3,-6.37 16.28,-12.9 24.62,-19.19 l 41.32,-31.15 -89.93,68.43 z m 3.989,4.51 c 16.55,-12.49 32.101,-26.06 48.271,-38.91 7.62,-6.06 14.87,-12.47 22.72,-18.39 4.69,-3.54 14.26,-8.47 16.74,-13.25 l -87.731,70.55 z m 4.69,4.6 c 29.45,-21.95 59.45,-44.89 87.72,-68.07 l -87.72,68.07 z m 0.2,-3.91 c 28.26,-21.32 57.44,-45.21 84.54,-65.65 l -84.54,65.65 z m -6.33,10.73 c 8.23,-4.02 18.9,-11.62 24.55,-16.35 9.07,-7.59 17.85,-16.46 27.82,-22.54 16,-9.771 28.23,-24.73 43.92,-34.4 l -96.29,73.29 z m 8.681,-0.91 c 8.78,-4.229 16.31,-12.21 23.98,-18.109 8.3,-6.38 16.28,-12.91 24.61,-19.2 l 41.31,-31.18 -89.9,68.489 z m 4,4.5 c 16.54,-12.49 32.09,-26.08 48.24,-38.939 7.63,-6.061 14.87,-12.47 22.72,-18.39 4.68,-3.54 14.26,-8.48 16.73,-13.26 l -87.69,70.589 z m 4.689,4.6 c 29.44,-21.96 59.43,-44.92 87.68,-68.11 l -87.68,68.11 z m 84.701,-69.61 c -27.09,20.46 -56.25,44.37 -84.51,65.7 l 84.51,-65.7 z"
           id="path487"
           inkscape:connector-curvature="0"
           style="clip-rule:evenodd;fill:none;fill-rule:evenodd;stroke:#ffffff;stroke-linecap:round;stroke-linejoin:round;stroke-miterlimit:10" /></g></mask><g
       mask="url(#SVGID_8_)"
       id="g489"
       style="opacity:0.6"><path
         d="m 923.233,465.388 0.23,-0.89 c 0,0 0.541,-2.91 1.55,-5.86 0.74,-2.14 1.43,-5.38 1.43,-5.38 0.061,-0.22 0.49,-0.59 0.88,-0.49 0,0 9.48,2.36 13.19,3.54 0.93,0.29 4.77,0.99 7.17,1.63 4.85,1.3 9.16,2.74 9.16,2.74 2.82,0.75 1.99,1.85 1.93,2.07 l -2.86,10.82 c -0.06,0.229 -0.35,1.479 -1.61,1.14 0,0 -15.04,-4.41 -18.06,-4.82 -3.02,-0.42 -11.77,-3.15 -11.77,-3.15 -0.91,-0.24 -1.4,-0.77 -1.24,-1.35 z"
         id="path491"
         inkscape:connector-curvature="0"
         style="clip-rule:evenodd;fill:#ffffff;fill-rule:evenodd" /></g><g
       id="g493"><path
         stroke-miterlimit="10"
         d="m 948.863,493.968 c 0,0 -8.939,-1.99 -11.77,-3.14 -2.83,-1.15 -18.08,-4.82 -18.08,-4.82 -1.26,-0.34 -0.89,-1.57 -0.84,-1.79 l 2.87,-10.84 c 0.06,-0.22 -0.12,-1.59 2.7,-0.84 0,0 4.46,0.91 9.32,2.21 2.41,0.63 6.08,1.95 7.04,2.16 3.8,0.82 13.18,3.51 13.18,3.51 0.39,0.11 0.59,0.64 0.53,0.86 0,0 -1,3.16 -1.42,5.39 -0.58,3.061 -1.55,5.86 -1.55,5.86 l -0.23,0.89 c -0.159,0.58 -0.84,0.8 -1.75,0.55 z"
         id="path495"
         inkscape:connector-curvature="0"
         style="clip-rule:evenodd;fill:none;fill-rule:evenodd;stroke:#ffffff;stroke-linecap:round;stroke-linejoin:round;stroke-miterlimit:10" /></g><defs
       id="defs497"><filter
         id="Adobe_OpacityMaskFilter_2_"
         filterUnits="userSpaceOnUse"
         x="918.08502"
         y="472.315"
         width="35.738998"
         height="21.754"><feColorMatrix
           type="matrix"
           values="1 0 0 0 0  0 1 0 0 0  0 0 1 0 0  0 0 0 1 0"
           id="feColorMatrix500" /></filter></defs><mask
       maskUnits="userSpaceOnUse"
       x="918.085"
       y="472.315"
       width="35.739"
       height="21.754"
       id="SVGID_9_"><g
         id="g503"
         style="filter:url(#Adobe_OpacityMaskFilter_2_)"><path
           stroke-miterlimit="10"
           d="m 893.204,470.308 c 8.24,-4 18.93,-11.57 24.6,-16.29 9.08,-7.56 17.89,-16.41 27.87,-22.47 16.04,-9.729 28.3,-24.649 44.01,-34.29 l -96.48,73.05 z m 8.69,-0.9 c 8.8,-4.2 16.35,-12.16 24.03,-18.04 8.32,-6.36 16.31,-12.87 24.66,-19.14 l 41.4,-31.08 -90.09,68.26 z m 4,4.51 c 16.57,-12.45 32.16,-25.99 48.35,-38.81 7.64,-6.05 14.9,-12.44 22.76,-18.34 4.689,-3.53 14.29,-8.45 16.77,-13.22 l -87.88,70.37 z m 4.689,4.6 c 29.5,-21.88 59.55,-44.77 87.87,-67.89 l -87.87,67.89 z m 0.201,-3.9 c 28.31,-21.27 57.54,-45.1 84.69,-65.49 l -84.69,65.49 z m -5.89,11.31 c 8.24,-4 18.93,-11.58 24.59,-16.31 9.08,-7.56 17.88,-16.42 27.86,-22.48 16.041,-9.74 28.28,-24.67 44,-34.31 l -96.45,73.1 z m 8.689,-0.9 c 8.8,-4.21 16.34,-12.18 24.02,-18.05 8.31,-6.37 16.3,-12.88 24.65,-19.16 l 41.38,-31.1 -90.05,68.31 z m 3.99,4.5 c 16.58,-12.46 32.15,-26.01 48.33,-38.83 7.64,-6.06 14.9,-12.45 22.76,-18.36 4.69,-3.53 14.28,-8.439 16.76,-13.22 l -87.85,70.41 z m 4.7,4.61 c 29.49,-21.9 59.53,-44.8 87.83,-67.94 l -87.83,67.94 z m 0.201,-3.9 c 28.3,-21.29 57.52,-45.14 84.65,-65.54 l -84.65,65.54 z m -6.34,10.7 c 8.24,-4 18.92,-11.59 24.58,-16.311 9.08,-7.57 17.87,-16.43 27.85,-22.5 16.03,-9.74 28.27,-24.68 43.98,-34.33 l -96.41,73.141 z m 8.689,-0.9 c 8.79,-4.21 16.33,-12.18 24.01,-18.06 8.31,-6.37 16.3,-12.891 24.64,-19.17 l 41.36,-31.12 -90.01,68.35 z m 3.99,4.5 c 16.57,-12.46 32.14,-26.02 48.31,-38.85 7.64,-6.061 14.89,-12.46 22.74,-18.37 4.7,-3.53 14.28,-8.45 16.76,-13.23 l -87.81,70.45 z m 4.701,4.61 c 29.47,-21.92 59.5,-44.83 87.79,-67.98 l -87.79,67.98 z m 84.809,-69.48 c -27.12,20.42 -56.33,44.28 -84.62,65.58 l 84.62,-65.58 z m -89.78,76.45 c 8.23,-4.01 18.9,-11.6 24.56,-16.33 9.07,-7.58 17.86,-16.44 27.84,-22.51 16.02,-9.75 28.26,-24.69 43.96,-34.35 l -96.36,73.19 z m 8.681,-0.91 c 8.79,-4.22 16.33,-12.19 24,-18.08 8.3,-6.37 16.29,-12.89 24.63,-19.17 l 41.34,-31.14 -89.97,68.39 z m 3.989,4.51 c 16.56,-12.48 32.12,-26.05 48.291,-38.89 7.63,-6.06 14.88,-12.46 22.729,-18.38 4.69,-3.53 14.27,-8.46 16.75,-13.24 l -87.77,70.51 z m 4.701,4.6 c 29.46,-21.93 59.47,-44.86 87.75,-68.021 l -87.75,68.021 z m 0.19,-3.9 c 28.28,-21.32 57.47,-45.189 84.58,-65.62 l -84.58,65.62 z m -5.871,11.311 c 8.22,-4.01 18.9,-11.601 24.55,-16.34 9.07,-7.58 17.86,-16.45 27.83,-22.52 16.01,-9.76 28.24,-24.71 43.94,-34.38 l -96.32,73.24 z m 8.681,-0.911 c 8.78,-4.22 16.31,-12.2 23.99,-18.09 8.3,-6.37 16.28,-12.9 24.62,-19.19 l 41.32,-31.15 -89.93,68.43 z m 3.989,4.51 c 16.55,-12.49 32.101,-26.06 48.271,-38.91 7.62,-6.06 14.87,-12.47 22.72,-18.39 4.69,-3.54 14.26,-8.47 16.74,-13.25 l -87.731,70.55 z m 4.69,4.6 c 29.45,-21.95 59.45,-44.89 87.72,-68.07 l -87.72,68.07 z m 0.2,-3.91 c 28.26,-21.32 57.44,-45.21 84.54,-65.65 l -84.54,65.65 z m -6.33,10.73 c 8.23,-4.02 18.9,-11.62 24.55,-16.35 9.07,-7.59 17.85,-16.46 27.82,-22.54 16,-9.771 28.23,-24.73 43.92,-34.4 l -96.29,73.29 z m 8.681,-0.91 c 8.78,-4.229 16.31,-12.21 23.98,-18.109 8.3,-6.38 16.28,-12.91 24.61,-19.2 l 41.31,-31.18 -89.9,68.489 z m 4,4.5 c 16.54,-12.49 32.09,-26.08 48.24,-38.939 7.63,-6.061 14.87,-12.47 22.72,-18.39 4.68,-3.54 14.26,-8.48 16.73,-13.26 l -87.69,70.589 z m 4.689,4.6 c 29.44,-21.96 59.43,-44.92 87.68,-68.11 l -87.68,68.11 z m 84.701,-69.61 c -27.09,20.46 -56.25,44.37 -84.51,65.7 l 84.51,-65.7 z"
           id="path505"
           inkscape:connector-curvature="0"
           style="clip-rule:evenodd;fill:none;fill-rule:evenodd;stroke:#ffffff;stroke-linecap:round;stroke-linejoin:round;stroke-miterlimit:10" /></g></mask><g
       mask="url(#SVGID_9_)"
       id="g507"
       style="opacity:0.6"><path
         d="m 948.863,493.968 c 0,0 -8.939,-1.99 -11.77,-3.14 -2.83,-1.15 -18.08,-4.82 -18.08,-4.82 -1.26,-0.34 -0.89,-1.57 -0.84,-1.79 l 2.87,-10.84 c 0.06,-0.22 -0.12,-1.59 2.7,-0.84 0,0 4.46,0.91 9.32,2.21 2.41,0.63 6.08,1.95 7.04,2.16 3.8,0.82 13.18,3.51 13.18,3.51 0.39,0.11 0.59,0.64 0.53,0.86 0,0 -1,3.16 -1.42,5.39 -0.58,3.061 -1.55,5.86 -1.55,5.86 l -0.23,0.89 c -0.159,0.58 -0.84,0.8 -1.75,0.55 z"
         id="path509"
         inkscape:connector-curvature="0"
         style="clip-rule:evenodd;fill:#ffffff;fill-rule:evenodd" /></g><path
       stroke-miterlimit="10"
       d="m 915.854,437.348 c -0.82,-0.18 -1.19,-0.96 -1.1,-1.6 0.1,-0.62 0.53,-0.97 1.109,-1.1 0.58,-0.14 1.12,0.01 1.521,0.49 0.59,0.7 0.55,1.55 -0.14,2.04 -0.39,0.29 -0.85,0.36 -1.39,0.17 z"
       id="path511"
       inkscape:connector-curvature="0"
       style="clip-rule:evenodd;fill:none;fill-rule:evenodd;stroke:#ffffff;stroke-linecap:round;stroke-linejoin:round;stroke-miterlimit:10" /><g
       id="g513"><path
         stroke-miterlimit="10"
         d="m 910.394,483.428 -21.54,-5.74 c -0.39,-0.11 -1.11,-0.641 -1,-1.03 l 7.88,-29.62 c 0.75,-2.82 2.8,-1.73 3.19,-1.63 l 19.21,5.14 c 0.39,0.101 2.6,0.66 2.27,1.92 l -7.93,29.91 c -0.241,0.91 -1.05,1.33 -2.08,1.05 z"
         id="path515"
         inkscape:connector-curvature="0"
         style="clip-rule:evenodd;fill:none;fill-rule:evenodd;stroke:#ffffff;stroke-linecap:round;stroke-linejoin:round;stroke-miterlimit:10" /></g><defs
       id="defs517"><filter
         id="Adobe_OpacityMaskFilter_3_"
         filterUnits="userSpaceOnUse"
         x="887.84198"
         y="445.11801"
         width="32.594002"
         height="38.396"><feColorMatrix
           type="matrix"
           values="1 0 0 0 0  0 1 0 0 0  0 0 1 0 0  0 0 0 1 0"
           id="feColorMatrix520" /></filter></defs><mask
       maskUnits="userSpaceOnUse"
       x="887.842"
       y="445.118"
       width="32.594"
       height="38.396"
       id="SVGID_10_"><g
         id="g523"
         style="filter:url(#Adobe_OpacityMaskFilter_3_)"><path
           stroke-miterlimit="10"
           d="m 764.014,461.258 c 9.44,-4.56 21.69,-13.19 28.19,-18.58 10.41,-8.63 20.5,-18.73 31.95,-25.63 18.37,-11.1 32.41,-28.12 50.41,-39.1 l -110.55,83.31 z m 9.949,-1.02 c 10.08,-4.8 18.73,-13.87 27.541,-20.58 9.53,-7.26 18.689,-14.68 28.26,-21.83 l 47.42,-35.44 -103.221,77.85 z m 4.56,5.15 c 19,-14.21 36.87,-29.66 55.41,-44.28 8.76,-6.9 17.08,-14.19 26.09,-20.92 5.37,-4.021 16.36,-9.62 19.21,-15.07 l -100.71,80.27 z m 5.361,5.25 c 33.81,-24.97 68.25,-51.07 100.68,-77.44 l -100.68,77.44 z m 0.24,-4.45 c 32.45,-24.271 65.94,-51.45 97.03,-74.7 l -97.03,74.7 z m -6.761,12.9 c 9.43,-4.56 21.68,-13.21 28.17,-18.6 10.41,-8.64 20.5,-18.74 31.94,-25.65 18.36,-11.109 32.4,-28.14 50.39,-39.13 l -110.5,83.38 z m 9.941,-1.02 c 10.08,-4.81 18.73,-13.9 27.53,-20.6 9.53,-7.26 18.68,-14.69 28.25,-21.85 l 47.39,-35.47 -103.17,77.92 z m 4.559,5.14 c 18.99,-14.22 36.85,-29.68 55.391,-44.31 8.75,-6.91 17.069,-14.2 26.069,-20.94 5.38,-4.02 16.36,-9.63 19.2,-15.08 l -100.66,80.33 z m 5.361,5.26 c 33.8,-25 68.22,-51.12 100.64,-77.51 l -100.64,77.51 z m 0.239,-4.46 c 32.44,-24.29 65.91,-51.49 96.99,-74.76 l -96.99,74.76 z m -7.27,12.23 c 9.44,-4.57 21.68,-13.23 28.17,-18.62 10.4,-8.64 20.48,-18.75 31.91,-25.68 18.36,-11.11 32.39,-28.15 50.38,-39.15 l -110.46,83.45 z m 9.941,-1.03 c 10.07,-4.81 18.72,-13.91 27.52,-20.62 9.521,-7.27 18.68,-14.71 28.23,-21.87 l 47.38,-35.49 -103.13,77.98 z m 4.559,5.14 c 18.99,-14.23 36.84,-29.71 55.37,-44.35 8.75,-6.9 17.06,-14.21 26.05,-20.94 5.38,-4.03 16.35,-9.65 19.2,-15.1 l -100.62,80.39 z m 5.37,5.25 c 33.78,-25.01 68.18,-51.15 100.58,-77.55 l -100.58,77.55 z m 97.181,-79.27 c -31.07,23.29 -64.53,50.51 -96.95,74.82 l 96.95,-74.82 z m -102.881,87.22 c 9.42,-4.569 21.66,-13.229 28.15,-18.63 10.39,-8.65 20.47,-18.76 31.89,-25.689 18.351,-11.12 32.38,-28.17 50.351,-39.181 l -110.391,83.5 z m 9.93,-1.03 c 10.07,-4.81 18.71,-13.91 27.51,-20.63 9.51,-7.27 18.66,-14.72 28.22,-21.88 l 47.35,-35.52 -103.08,78.03 z m 4.561,5.14 c 18.98,-14.24 36.81,-29.72 55.34,-44.37 8.74,-6.92 17.05,-14.22 26.04,-20.97 5.37,-4.03 16.34,-9.65 19.18,-15.1 l -100.56,80.44 z m 5.37,5.25 c 33.76,-25.02 68.14,-51.19 100.53,-77.6 l -100.53,77.6 z m 0.23,-4.45 c 32.4,-24.32 65.85,-51.56 96.9,-74.87 l -96.9,74.87 z m -6.75,12.92 c 9.42,-4.58 21.66,-13.25 28.14,-18.649 10.39,-8.65 20.46,-18.78 31.89,-25.71 18.33,-11.13 32.35,-28.19 50.32,-39.21 l -110.35,83.569 z m 9.93,-1.04 c 10.07,-4.82 18.709,-13.92 27.5,-20.64 9.51,-7.28 18.65,-14.73 28.209,-21.9 l 47.32,-35.55 -103.029,78.09 z m 4.57,5.141 c 18.96,-14.25 36.79,-29.74 55.31,-44.4 8.73,-6.92 17.04,-14.23 26.03,-20.98 5.36,-4.04 16.33,-9.66 19.17,-15.12 l -100.51,80.5 z m 5.359,5.25 c 33.75,-25.04 68.11,-51.23 100.49,-77.67 l -100.49,77.67 z m 0.23,-4.461 c 32.39,-24.34 65.82,-51.6 96.85,-74.91 l -96.85,74.91 z m -7.259,12.25 c 9.42,-4.58 21.65,-13.26 28.13,-18.66 10.39,-8.66 20.45,-18.79 31.87,-25.73 18.33,-11.14 32.34,-28.21 50.3,-39.24 l -110.3,83.63 z m 9.929,-1.039 c 10.06,-4.83 18.7,-13.94 27.49,-20.67 9.5,-7.28 18.64,-14.73 28.19,-21.91 l 47.3,-35.57 -102.98,78.15 z m 4.571,5.139 c 18.95,-14.27 36.77,-29.77 55.28,-44.44 8.73,-6.92 17.03,-14.24 26.02,-21 5.36,-4.03 16.32,-9.66 19.16,-15.12 l -100.46,80.56 z m 5.36,5.25 c 33.73,-25.07 68.08,-51.27 100.44,-77.73 l -100.44,77.73 z m 97.03,-79.44 c -31.01,23.34 -64.43,50.62 -96.8,74.98 l 96.8,-74.98 z"
           id="path525"
           inkscape:connector-curvature="0"
           style="clip-rule:evenodd;fill:none;fill-rule:evenodd;stroke:#ffffff;stroke-linecap:round;stroke-linejoin:round;stroke-miterlimit:10" /></g></mask><g
       mask="url(#SVGID_10_)"
       id="g527"
       style="opacity:0.6"><path
         d="m 910.394,483.428 -21.54,-5.74 c -0.39,-0.11 -1.11,-0.641 -1,-1.03 l 7.88,-29.62 c 0.75,-2.82 2.8,-1.73 3.19,-1.63 l 19.21,5.14 c 0.39,0.101 2.6,0.66 2.27,1.92 l -7.93,29.91 c -0.241,0.91 -1.05,1.33 -2.08,1.05 z"
         id="path529"
         inkscape:connector-curvature="0"
         style="clip-rule:evenodd;fill:#ffffff;fill-rule:evenodd" /></g></g><g
     id="g531"
     transform="translate(267.70465,61.189637)"
     style="opacity:0.7"><path
       stroke-miterlimit="10"
       d="m 1814.804,421.118 c 6.34,1.88 19.49,4.61 19.49,4.61"
       id="path533"
       inkscape:connector-curvature="0"
       style="clip-rule:evenodd;fill:none;fill-rule:evenodd;stroke:#ffffff;stroke-linecap:round;stroke-linejoin:round;stroke-miterlimit:10" /><path
       stroke-miterlimit="10"
       d="m 1850.834,421.468 c 0,0 -1.141,5.25 -1.091,5.07 0.051,-0.19 9,2.23 9.311,2.29 0.31,0.06 2.49,-4.95 -0.19,-5.68 l -8.06,-2.18"
       id="path535"
       inkscape:connector-curvature="0"
       style="clip-rule:evenodd;fill:none;fill-rule:evenodd;stroke:#ffffff;stroke-linecap:round;stroke-linejoin:round;stroke-miterlimit:10" /><path
       stroke-miterlimit="10"
       d="m 1839.264,418.338 c 0,0 -1.13,5.25 -1.08,5.061 0.05,-0.19 9,2.229 9.31,2.29 0.311,0.07 2.49,-4.95 -0.189,-5.67 l -8.061,-2.19"
       id="path537"
       inkscape:connector-curvature="0"
       style="clip-rule:evenodd;fill:none;fill-rule:evenodd;stroke:#ffffff;stroke-linecap:round;stroke-linejoin:round;stroke-miterlimit:10" /><path
       stroke-miterlimit="10"
       d="m 1833.804,415.018 -14.7,-3.95 -1.99,-0.51 c -2.84,-0.77 -3.38,4.19 -3.38,4.19 -0.476,1.748 -0.901,3.396 -1.296,4.98 -1.953,7.85 -3.115,14.125 -5.504,23.17 -1.15,4.39 -0.431,4.51 3.25,5.5 12.75,3.43 22.86,6.07 35.56,9.64 1.98,0.55 6.311,1.33 7.801,0.53 0.579,-0.3 1.939,-2.39 2.079,-2.92 l 4.961,-18.68 c 0.989,-3.74 0.289,-4.08 -0.28,-4.23 l -26.28,-7.07 2.021,-7.63 c 0.39,-1.49 0.68,-2.23 -1.841,-2.91"
       id="path539"
       inkscape:connector-curvature="0"
       style="clip-rule:evenodd;fill:none;fill-rule:evenodd;stroke:#ffffff;stroke-linecap:round;stroke-linejoin:round;stroke-miterlimit:10" /><defs
       id="defs541"><filter
         id="Adobe_OpacityMaskFilter_4_"
         filterUnits="userSpaceOnUse"
         x="1772.639"
         y="321.92001"
         width="152.23599"
         height="146.64101"><feColorMatrix
           type="matrix"
           values="1 0 0 0 0  0 1 0 0 0  0 0 1 0 0  0 0 0 1 0"
           id="feColorMatrix544" /></filter></defs><mask
       maskUnits="userSpaceOnUse"
       x="1772.639"
       y="321.92"
       width="152.236"
       height="146.641"
       id="SVGID_11_"><g
         id="g547"
         style="filter:url(#Adobe_OpacityMaskFilter_4_)"><path
           d="m 1835.818,416.906 c 0,0 -2.334,8.486 -2.277,8.196 0.056,-0.291 -19.726,-4.825 -20.186,-4.946 -0.372,-0.086 -1.32,-6.105 1.61,-7.734 0.741,-0.412 -0.22,-2.36 5.367,-0.452 l 12.252,3.271 0.114,0.021"
           id="path549"
           inkscape:connector-curvature="0"
           style="clip-rule:evenodd;fill:#ffffff;fill-rule:evenodd" /></g></mask><path
       mask="url(#SVGID_11_)"
       stroke-miterlimit="10"
       d="m 1773.014,389.849 c 7.654,-3.698 17.587,-10.695 22.857,-15.066 8.441,-6.999 16.623,-15.188 25.908,-20.783 14.896,-9 26.28,-22.802 40.875,-31.705 l -89.64,67.554 z m 8.067,-0.827 c 8.174,-3.892 15.188,-11.247 22.332,-16.688 7.728,-5.887 15.155,-11.904 22.915,-17.702 l 38.451,-28.736 -83.698,63.126 z m 3.698,4.176 c 15.406,-11.522 29.896,-24.05 44.93,-35.905 7.104,-5.595 13.85,-11.507 21.156,-16.963 4.354,-3.261 13.266,-7.801 15.576,-12.221 l -81.662,65.089 z m 4.347,4.257 c 27.415,-20.247 55.341,-41.411 81.638,-62.792 l -81.638,62.792 z m 0.193,-3.608 c 26.313,-19.68 53.47,-41.719 78.679,-60.572 l -78.679,60.572 z m -5.481,10.459 c 7.646,-3.696 17.58,-10.711 22.843,-15.081 8.441,-7.006 16.622,-15.195 25.899,-20.799 14.888,-9.008 26.271,-22.817 40.859,-31.729 l -89.601,67.609 z m 8.06,-0.826 c 8.174,-3.9 15.188,-11.272 22.323,-16.705 7.728,-5.887 15.147,-11.912 22.907,-17.718 l 38.427,-28.761 -83.657,63.184 z m 3.698,4.167 c 15.398,-11.53 29.881,-24.066 44.915,-35.929 7.095,-5.604 13.841,-11.514 21.139,-16.98 4.362,-3.259 13.266,-7.809 15.568,-12.228 l -81.622,65.137 z m 4.346,4.266 c 27.407,-20.271 55.317,-41.452 81.605,-62.85 l -81.605,62.85 z m 0.195,-3.616 c 26.305,-19.697 53.444,-41.752 78.646,-60.621 l -78.646,60.621 z m -5.895,9.916 c 7.654,-3.706 17.579,-10.728 22.842,-15.099 8.434,-7.006 16.606,-15.204 25.875,-20.823 14.888,-9.009 26.265,-22.826 40.852,-31.745 l -89.569,67.667 z m 8.061,-0.836 c 8.164,-3.899 15.179,-11.279 22.314,-16.72 7.72,-5.894 15.147,-11.927 22.891,-17.733 l 38.419,-28.777 -83.624,63.23 z m 3.696,4.168 c 15.399,-11.538 29.872,-24.091 44.898,-35.962 7.095,-5.595 13.833,-11.522 21.123,-16.979 4.362,-3.268 13.257,-7.825 15.568,-12.245 l -81.589,65.186 z m 4.355,4.258 c 27.392,-20.28 55.286,-41.476 81.558,-62.883 l -81.558,62.883 z m 78.8,-64.278 c -25.193,18.885 -52.326,40.957 -78.614,60.67 l 78.614,-60.67 z m -83.423,70.724 c 7.639,-3.705 17.563,-10.727 22.826,-15.106 8.425,-7.014 16.599,-15.212 25.858,-20.83 14.88,-9.018 26.256,-22.843 40.828,-31.771 l -89.512,67.707 z m 8.052,-0.835 c 8.166,-3.9 15.172,-11.279 22.308,-16.727 7.711,-5.896 15.13,-11.937 22.883,-17.743 l 38.394,-28.802 -83.585,63.272 z m 3.698,4.168 c 15.391,-11.547 29.849,-24.099 44.873,-35.978 7.087,-5.611 13.826,-11.53 21.115,-17.003 4.354,-3.268 13.249,-7.825 15.553,-12.244 l -81.541,65.225 z m 4.355,4.257 c 27.375,-20.288 55.252,-41.508 81.517,-62.923 l -81.517,62.923 z m 0.185,-3.609 c 26.272,-19.72 53.396,-41.808 78.574,-60.71 l -78.574,60.71 z m -5.472,10.477 c 7.638,-3.714 17.563,-10.744 22.818,-15.122 8.424,-7.014 16.59,-15.229 25.857,-20.847 14.863,-9.025 26.232,-22.858 40.804,-31.794 l -89.479,67.763 z m 8.053,-0.844 c 8.164,-3.908 15.171,-11.287 22.299,-16.736 7.711,-5.903 15.122,-11.944 22.874,-17.758 l 38.37,-28.826 -83.543,63.32 z m 3.705,4.169 c 15.374,-11.555 29.832,-24.115 44.849,-36.002 7.079,-5.612 13.817,-11.539 21.106,-17.012 4.347,-3.276 13.242,-7.833 15.545,-12.26 l -81.5,65.274 z m 4.345,4.257 c 27.367,-20.303 55.229,-41.541 81.484,-62.98 l -81.484,62.98 z m 0.187,-3.617 c 26.265,-19.736 53.371,-41.841 78.533,-60.742 l -78.533,60.742 z m -5.887,9.933 c 7.638,-3.713 17.556,-10.752 22.811,-15.13 8.425,-7.022 16.581,-15.236 25.841,-20.863 14.863,-9.033 26.224,-22.875 40.788,-31.819 l -89.44,67.812 z m 8.052,-0.843 c 8.157,-3.917 15.164,-11.304 22.291,-16.761 7.703,-5.903 15.115,-11.944 22.858,-17.766 l 38.354,-28.843 -83.503,63.37 z m 3.706,4.168 c 15.366,-11.571 29.815,-24.14 44.824,-36.035 7.079,-5.611 13.81,-11.547 21.1,-17.028 4.346,-3.268 13.232,-7.833 15.536,-12.261 l -81.46,65.324 z m 4.347,4.257 c 27.35,-20.329 55.203,-41.573 81.443,-63.028 l -81.443,63.028 z m 78.677,-64.416 c -25.145,18.926 -52.243,41.046 -78.492,60.799 l 78.492,-60.799 z"
       id="path551"
       inkscape:connector-curvature="0"
       style="clip-rule:evenodd;fill:none;fill-rule:evenodd;stroke:#ffffff;stroke-width:0.75;stroke-linecap:round;stroke-linejoin:round;stroke-miterlimit:10" /></g><g
     id="g553"
     transform="translate(-123.65405,-217.98807)"
     style="opacity:0.8"><g
       id="g555"><path
         stroke-miterlimit="10"
         d="m 660.824,435.958 c -1.34,0.88 -2.88,0.37 -3.61,-0.6 -0.709,-0.95 -0.62,-1.98 -0.03,-2.94 0.6,-0.97 1.51,-1.5 2.7,-1.42 1.72,0.12 2.8,1.28 2.56,2.86 -0.14,0.91 -0.651,1.621 -1.62,2.1 z"
         id="path557"
         inkscape:connector-curvature="0"
         style="clip-rule:evenodd;fill:none;fill-rule:evenodd;stroke:#ffffff;stroke-linecap:round;stroke-linejoin:round;stroke-miterlimit:10" /><path
         stroke-miterlimit="10"
         d="m 627.014,411.748 20.42,32.86 c 3.16,5.11 1.62,2.02 4.73,7.16 0.95,1.55 1.92,2.6 3.63,3.34 3.21,1.39 4.9,0.61 7.74,-0.99 1.67,-0.94 23.79,-13.89 25.46,-14.92 2.02,-1.25 10.93,4.4 12.95,3.16 1.61,-0.99 0.4,-11.32 2.02,-12.3 4.12,-2.51 3,-2.18 8.45,-5.71 4.67,-3.01 9.61,-5.56 14.43,-8.3 2.93,-1.66 5.91,-4.35 6.31,-7.87 0.16,-1.44 -0.35,-2.26 -1.66,-4.37"
         id="path559"
         inkscape:connector-curvature="0"
         style="fill:none;stroke:#ffffff;stroke-linecap:round;stroke-linejoin:round;stroke-miterlimit:10" /><path
         stroke-miterlimit="10"
         d="m 705.804,361.588 c 3.69,5.931 5.66,10.181 9.32,16.09 2.79,4.48 5.47,9.1 8.47,13.41 5.24,7.521 1.79,2.87 6.83,10.99"
         id="path561"
         inkscape:connector-curvature="0"
         style="fill:none;stroke:#ffffff;stroke-linecap:round;stroke-linejoin:round;stroke-miterlimit:10" /><path
         stroke-miterlimit="10"
         d="m 625.983,410.078 c -1.71,-4.11 -0.55,-6.81 2.16,-10.03 l 0.17,-0.28 c 3.02,-1.98 23.79,-15.41 27.57,-17.75 5.89,-3.63 16.29,-9.05 22.21,-12.7 l 11.76,-7.28 3.99,-2.47 c 1.66,-1.16 3.48,-1.49 5.38,-1.71 1.61,-0.2 4.54,0.72 5.24,2.43"
         id="path563"
         inkscape:connector-curvature="0"
         style="fill:none;stroke:#ffffff;stroke-linecap:round;stroke-linejoin:round;stroke-miterlimit:10" /><path
         stroke-miterlimit="10"
         d="m 664.813,414.548 c 2.68,-1.3 43.64,-27.06 46.76,-28.29"
         id="path565"
         inkscape:connector-curvature="0"
         style="fill:none;stroke:#ffffff;stroke-linecap:round;stroke-linejoin:round;stroke-miterlimit:10" /><path
         stroke-miterlimit="10"
         d="m 670.074,423.338 c 2.69,-1.3 31.21,-19.649 34.33,-20.88"
         id="path567"
         inkscape:connector-curvature="0"
         style="fill:none;stroke:#ffffff;stroke-linecap:round;stroke-linejoin:round;stroke-miterlimit:10" /><path
         stroke-miterlimit="10"
         d="m 659.554,405.748 c 2.68,-1.29 31.21,-19.64 34.33,-20.87"
         id="path569"
         inkscape:connector-curvature="0"
         style="fill:none;stroke:#ffffff;stroke-linecap:round;stroke-linejoin:round;stroke-miterlimit:10" /><g
         id="g571"><path
           d="m 642.104,406.688 c -0.8,0.47 -1.07,1.05 -1.3,1.399 -0.85,1.271 0.36,3.391 1.86,5.391 1.19,1.59 7.95,11.13 10.58,15.02 0.67,1 1.8,0.95 1.8,0.95 l 3.52,-1.77 c 0,0 0.08,-1.43 -0.73,-2.94 -0.8,-1.51 -8.78,-16.72 -8.78,-16.72 0,0 -2.03,-4.31 -3.24,-3.47 l -0.05,0.04 -0.46,0.28 c -1.011,0.6 -2.221,1.24 -3.2,1.82 z m 0.45,0.75 c 0.47,-0.28 1,-0.58 1.53,-0.87 0.57,-0.32 1.14,-0.64 1.66,-0.95 l 0.47,-0.28 c 0.4,0.28 2.33,4.08 2.37,4.17 l 9.25,17.42 c 0.12,0.23 -2.45,1.56 -2.5,1.74 l -1.46,-0.439 c -0.04,-0.021 0.03,0.08 0.03,0.08 0,0 0,0 -0.01,-0.01 -3.4,-5.04 -9.41,-13.89 -10.57,-15.45 -1.26,-1.67 -1.95,-2.81 -2.06,-3.37 0.15,-0.12 0.3,-0.65 0.8,-0.95 l 0.49,-1.091 z"
           id="path573"
           inkscape:connector-curvature="0"
           style="clip-rule:evenodd;fill:#ffffff;fill-rule:evenodd" /></g></g><g
       id="g575"
       style="opacity:0.6"><defs
         id="defs577"><path
           id="SVGID_12_"
           d="m 642.554,407.438 c 0.47,-0.28 1,-0.58 1.53,-0.87 0.57,-0.32 1.14,-0.64 1.66,-0.95 l 0.47,-0.28 c 0.4,0.28 2.33,4.08 2.37,4.17 l 9.25,17.42 c 0.12,0.23 -2.45,1.56 -2.5,1.74 l -1.46,-0.439 c -0.04,-0.021 0.03,0.08 0.03,0.08 0,0 0,0 -0.01,-0.01 -3.4,-5.04 -9.41,-13.89 -10.57,-15.45 -1.26,-1.67 -1.95,-2.81 -2.06,-3.37 0.15,-0.12 0.3,-0.65 0.8,-0.95 l 0.49,-1.091 z"
           inkscape:connector-curvature="0"
           style="opacity:0.6" /></defs><clipPath
         id="SVGID_13_"><use
           xlink:href="#SVGID_12_"
           overflow="visible"
           id="use581"
           style="overflow:visible"
           x="0"
           y="0"
           width="100%"
           height="100%" /></clipPath><path
         clip-path="url(#SVGID_13_)"
         stroke-miterlimit="10"
         d="m 759.593,397.678 c -9.08,-1.91 -21.44,-6.72 -28.169,-9.96 -10.79,-5.2 -21.63,-11.73 -32.95,-15.24 -18.2,-5.641 -33.96,-17.3 -51.84,-22.931 l 112.959,48.131 z m -8.77,1.23 c -9.68,-1.97 -19.04,-7.93 -28.04,-11.81 -9.75,-4.21 -19.21,-8.64 -28.98,-12.75 l -48.47,-20.42 105.49,44.98 z m -2.829,5.38 c -19.34,-8.15 -38,-17.62 -57.08,-26.24 -9.02,-4.069 -17.75,-8.569 -26.95,-12.439 -5.5,-2.32 -16.18,-4.811 -19.8,-8.89 l 103.83,47.569 z m -3.5,5.63 c -34.37,-14.229 -69.58,-29.33 -103.2,-45.11 l 103.2,45.11 z m -1.14,-3.76 c -33.05,-13.92 -67.69,-30.16 -99.49,-43.55 l 99.49,43.55 z m 8.53,9.62 c -9.07,-1.91 -21.42,-6.72 -28.15,-9.96 -10.78,-5.2 -21.61,-11.72 -32.93,-15.23 -18.18,-5.63 -33.93,-17.29 -51.81,-22.92 l 112.89,48.11 z m -8.76,1.23 c -9.67,-1.98 -19.03,-7.93 -28.03,-11.81 -9.73,-4.2 -19.19,-8.63 -28.95,-12.75 l -48.44,-20.41 105.42,44.97 z m -2.831,5.37 c -19.33,-8.149 -37.97,-17.61 -57.04,-26.229 -9.01,-4.061 -17.74,-8.561 -26.94,-12.44 -5.49,-2.31 -16.16,-4.8 -19.78,-8.88 l 103.76,47.549 z m -3.489,5.63 c -34.35,-14.23 -69.54,-29.32 -103.13,-45.1 l 103.13,45.1 z m -1.151,-3.76 c -33.03,-13.92 -67.649,-30.15 -99.42,-43.54 l 99.42,43.54 z m 8.83,8.91 c -9.07,-1.91 -21.41,-6.72 -28.13,-9.95 -10.78,-5.2 -21.6,-11.72 -32.91,-15.229 -18.17,-5.63 -33.92,-17.271 -51.78,-22.91 l 112.82,48.089 z m -8.75,1.23 c -9.67,-1.98 -19.03,-7.92 -28.01,-11.8 -9.74,-4.21 -19.19,-8.64 -28.94,-12.75 l -48.41,-20.399 105.36,44.949 z m -2.83,5.36 c -19.32,-8.14 -37.95,-17.6 -57.01,-26.21 -9.01,-4.06 -17.72,-8.56 -26.91,-12.44 -5.5,-2.31 -16.16,-4.8 -19.78,-8.88 l 103.7,47.53 z m -3.489,5.63 c -34.32,-14.229 -69.49,-29.31 -103.07,-45.08 l 103.07,45.08 z m -100.5,-47.28 c 31.75,13.39 66.34,29.61 99.35,43.52 l -99.35,-43.52 z m 107.069,52.86 c -9.06,-1.91 -21.39,-6.72 -28.11,-9.96 -10.77,-5.19 -21.59,-11.7 -32.89,-15.21 -18.16,-5.63 -33.89,-17.27 -51.74,-22.9 l 112.74,48.07 z m -8.739,1.22 c -9.67,-1.98 -19.02,-7.92 -28,-11.8 -9.72,-4.2 -19.17,-8.63 -28.92,-12.729 l -48.37,-20.4 105.29,44.929 z m -2.83,5.36 c -19.31,-8.14 -37.92,-17.59 -56.97,-26.2 -9,-4.07 -17.71,-8.56 -26.9,-12.43 -5.49,-2.31 -16.14,-4.81 -19.77,-8.88 l 103.64,47.51 z m -3.49,5.62 c -34.3,-14.22 -69.44,-29.3 -103,-45.06 l 103,45.06 z m -1.14,-3.76 c -32.99,-13.91 -67.56,-30.12 -99.29,-43.49 l 99.29,43.49 z m 8.52,9.59 c -9.04,-1.91 -21.38,-6.71 -28.09,-9.95 -10.76,-5.18 -21.57,-11.7 -32.87,-15.2 -18.15,-5.63 -33.87,-17.26 -51.71,-22.89 l 112.67,48.04 z m -8.741,1.22 c -9.65,-1.979 -18.99,-7.92 -27.97,-11.79 -9.72,-4.2 -19.16,-8.63 -28.9,-12.729 l -48.35,-20.38 105.22,44.899 z m -2.819,5.35 c -19.29,-8.13 -37.89,-17.58 -56.94,-26.18 -8.98,-4.07 -17.7,-8.56 -26.88,-12.43 -5.48,-2.31 -16.13,-4.8 -19.75,-8.87 l 103.57,47.48 z m -3.48,5.61 c -34.28,-14.21 -69.4,-29.28 -102.94,-45.04 l 102.94,45.04 z m -1.14,-3.75 c -32.97,-13.9 -67.52,-30.1 -99.23,-43.47 l 99.23,43.47 z m 8.81,8.89 c -9.05,-1.9 -21.37,-6.71 -28.08,-9.94 -10.76,-5.19 -21.56,-11.7 -32.85,-15.2 -18.13,-5.63 -33.851,-17.25 -51.68,-22.88 l 112.61,48.02 z m -8.73,1.22 c -9.65,-1.98 -18.99,-7.91 -27.96,-11.79 -9.72,-4.2 -19.15,-8.62 -28.89,-12.73 l -48.31,-20.37 105.16,44.89 z m -2.82,5.34 c -19.29,-8.13 -37.88,-17.57 -56.91,-26.17 -8.98,-4.06 -17.68,-8.55 -26.86,-12.42 -5.479,-2.31 -16.12,-4.8 -19.74,-8.87 l 103.51,47.46 z m -3.481,5.611 c -34.26,-14.21 -69.36,-29.28 -102.88,-45.021 l 102.88,45.021 z M 605.594,451.268 c 31.68,13.37 66.22,29.57 99.16,43.46 l -99.16,-43.46 z"
         id="path583"
         inkscape:connector-curvature="0"
         style="clip-rule:evenodd;fill:none;fill-rule:evenodd;stroke:#ffffff;stroke-linecap:round;stroke-linejoin:round;stroke-miterlimit:10" /></g><g
       id="g585"
       style="opacity:0.6"><defs
         id="defs587"><path
           id="SVGID_14_"
           d="m 660.824,435.958 c -1.34,0.88 -2.88,0.37 -3.61,-0.6 -0.709,-0.95 -0.62,-1.98 -0.03,-2.94 0.6,-0.97 1.51,-1.5 2.7,-1.42 1.72,0.12 2.8,1.28 2.56,2.86 -0.14,0.91 -0.651,1.621 -1.62,2.1 z"
           inkscape:connector-curvature="0"
           style="opacity:0.6" /></defs><clipPath
         id="SVGID_15_"><use
           xlink:href="#SVGID_14_"
           overflow="visible"
           id="use591"
           style="overflow:visible"
           x="0"
           y="0"
           width="100%"
           height="100%" /></clipPath><path
         clip-path="url(#SVGID_15_)"
         stroke-miterlimit="10"
         d="m 759.593,411.678 c -9.08,-1.91 -21.44,-6.72 -28.169,-9.96 -10.79,-5.2 -21.63,-11.73 -32.95,-15.24 -18.2,-5.641 -33.96,-17.3 -51.84,-22.931 l 112.959,48.131 z m -8.77,1.23 c -9.68,-1.97 -19.04,-7.93 -28.04,-11.81 -9.75,-4.21 -19.21,-8.64 -28.98,-12.75 l -48.47,-20.42 105.49,44.98 z m -2.829,5.38 c -19.34,-8.15 -38,-17.62 -57.08,-26.24 -9.02,-4.069 -17.75,-8.569 -26.95,-12.439 -5.5,-2.32 -16.18,-4.811 -19.8,-8.89 l 103.83,47.569 z m -3.5,5.63 c -34.37,-14.229 -69.58,-29.33 -103.2,-45.11 l 103.2,45.11 z m -1.14,-3.76 c -33.05,-13.92 -67.69,-30.16 -99.49,-43.55 l 99.49,43.55 z m 8.53,9.62 c -9.07,-1.91 -21.42,-6.72 -28.15,-9.96 -10.78,-5.2 -21.61,-11.72 -32.93,-15.23 -18.18,-5.63 -33.93,-17.29 -51.81,-22.92 l 112.89,48.11 z m -8.76,1.23 c -9.67,-1.98 -19.03,-7.93 -28.03,-11.81 -9.73,-4.2 -19.19,-8.63 -28.95,-12.75 l -48.44,-20.41 105.42,44.97 z m -2.831,5.37 c -19.33,-8.149 -37.97,-17.61 -57.04,-26.229 -9.01,-4.061 -17.74,-8.561 -26.94,-12.44 -5.49,-2.31 -16.16,-4.8 -19.78,-8.88 l 103.76,47.549 z m -3.489,5.63 c -34.35,-14.23 -69.54,-29.32 -103.13,-45.1 l 103.13,45.1 z m -1.151,-3.76 c -33.03,-13.92 -67.649,-30.15 -99.42,-43.54 l 99.42,43.54 z m 8.83,8.91 c -9.07,-1.91 -21.41,-6.72 -28.13,-9.95 -10.78,-5.2 -21.6,-11.72 -32.91,-15.229 -18.17,-5.63 -33.92,-17.271 -51.78,-22.91 l 112.82,48.089 z m -8.75,1.23 c -9.67,-1.98 -19.03,-7.92 -28.01,-11.8 -9.74,-4.21 -19.19,-8.64 -28.94,-12.75 l -48.41,-20.399 105.36,44.949 z m -2.83,5.36 c -19.32,-8.14 -37.95,-17.6 -57.01,-26.21 -9.01,-4.06 -17.72,-8.56 -26.91,-12.44 -5.5,-2.31 -16.16,-4.8 -19.78,-8.88 l 103.7,47.53 z m -3.489,5.63 c -34.32,-14.229 -69.49,-29.31 -103.07,-45.08 l 103.07,45.08 z m -100.5,-47.28 c 31.75,13.39 66.34,29.61 99.35,43.52 l -99.35,-43.52 z m 107.069,52.86 c -9.06,-1.91 -21.39,-6.72 -28.11,-9.96 -10.77,-5.19 -21.59,-11.7 -32.89,-15.21 -18.16,-5.63 -33.89,-17.27 -51.74,-22.9 l 112.74,48.07 z m -8.739,1.22 c -9.67,-1.98 -19.02,-7.92 -28,-11.8 -9.72,-4.2 -19.17,-8.63 -28.92,-12.729 l -48.37,-20.4 105.29,44.929 z m -2.83,5.36 c -19.31,-8.14 -37.92,-17.59 -56.97,-26.2 -9,-4.07 -17.71,-8.56 -26.9,-12.43 -5.49,-2.31 -16.14,-4.81 -19.77,-8.88 l 103.64,47.51 z m -3.49,5.62 c -34.3,-14.22 -69.44,-29.3 -103,-45.06 l 103,45.06 z m -1.14,-3.76 c -32.99,-13.91 -67.56,-30.12 -99.29,-43.49 l 99.29,43.49 z m 8.52,9.59 c -9.04,-1.91 -21.38,-6.71 -28.09,-9.95 -10.76,-5.18 -21.57,-11.7 -32.87,-15.2 -18.15,-5.63 -33.87,-17.26 -51.71,-22.89 l 112.67,48.04 z m -8.741,1.22 c -9.65,-1.979 -18.99,-7.92 -27.97,-11.79 -9.72,-4.2 -19.16,-8.63 -28.9,-12.729 l -48.35,-20.38 105.22,44.899 z m -2.819,5.35 c -19.29,-8.13 -37.89,-17.58 -56.94,-26.18 -8.98,-4.07 -17.7,-8.56 -26.88,-12.43 -5.48,-2.31 -16.13,-4.8 -19.75,-8.87 l 103.57,47.48 z m -3.48,5.61 c -34.28,-14.21 -69.4,-29.28 -102.94,-45.04 l 102.94,45.04 z m -1.14,-3.75 c -32.97,-13.9 -67.52,-30.1 -99.23,-43.47 l 99.23,43.47 z m 8.81,8.89 c -9.05,-1.9 -21.37,-6.71 -28.08,-9.94 -10.76,-5.19 -21.56,-11.7 -32.85,-15.2 -18.13,-5.63 -33.851,-17.25 -51.68,-22.88 l 112.61,48.02 z m -8.73,1.22 c -9.65,-1.98 -18.99,-7.91 -27.96,-11.79 -9.72,-4.2 -19.15,-8.62 -28.89,-12.73 l -48.31,-20.37 105.16,44.89 z m -2.82,5.34 c -19.29,-8.13 -37.88,-17.57 -56.91,-26.17 -8.98,-4.06 -17.68,-8.55 -26.86,-12.42 -5.479,-2.31 -16.12,-4.8 -19.74,-8.87 l 103.51,47.46 z m -3.481,5.611 c -34.26,-14.21 -69.36,-29.28 -102.88,-45.021 l 102.88,45.021 z M 605.594,465.268 c 31.68,13.37 66.22,29.57 99.16,43.46 l -99.16,-43.46 z"
         id="path593"
         inkscape:connector-curvature="0"
         style="clip-rule:evenodd;fill:none;fill-rule:evenodd;stroke:#ffffff;stroke-linecap:round;stroke-linejoin:round;stroke-miterlimit:10" /></g></g><g
     id="g619"
     transform="translate(-71.387907,79.036612)"
     style="opacity:0.7"><path
       stroke-miterlimit="10"
       d="m 2427.134,336.448 c 5.75,-3.14 12.909,-8.21 17.75,-12.01"
       id="path621"
       inkscape:connector-curvature="0"
       style="fill:none;stroke:#ffffff;stroke-linecap:round;stroke-linejoin:round;stroke-miterlimit:10" /><path
       stroke-miterlimit="10"
       d="m 2489.684,429.968 c 0.37,0.45 0.74,0.9 1.12,1.39 3.08,3.83 5.97,7.84 8.69,11.95 1.409,2.14 2.779,4.33 3.939,6.62 0.97,1.89 1.189,2.4 1.5,6.02 0.21,2.43 -0.36,5.97 0.26,8.29 0.67,2.59 2.11,4.89 3.91,6.88 3.391,3.78 7.96,7.26 13.05,8.31 3.78,0.79 8.15,0.74 11.74,-0.98 6.21,-2.94 9.78,-8.49 11.56,-14.93 1.92,-6.92 -1.149,-14.83 -6.569,-19.24 -1.851,-1.51 -3.97,-2.83 -6.25,-3.58 -1.62,-0.51 -3.311,-0.68 -4.851,-1.33 -1.93,-0.77 -3.51,-3.56 -4.68,-5.22 -1.51,-2.15 -2.93,-4.39 -4.35,-6.62 -2.551,-3.98 -4.87,-8.21 -7.82,-11.89 -3.55,-4.46 -53.22,-76.46 -55.811,-81.2 -2.47,-4.46 -4.619,-6.66 -2.68,-11.38 3.48,-8.27 2.45,-30.22 -3.96,-38.85 -7.43,-9.99 -26.46,-13.479 -29.27,-12.63 -3.181,0.94 -5.16,4.75 -0.71,10.46 2.289,3.01 12.66,15.36 15.289,22.52 -0.479,0.46 -20.47,13.75 -20.47,13.75 -4.909,-7.19 -18.56,-23.41 -19.29,-24.07 -2.35,-2.13 -7.71,-1.82 -7.76,4.27 0,0 -3.109,15.68 3.36,27.67 9.08,16.86 23.68,15.87 31.46,15.93 4.87,0.34 11.47,0.08 16.13,7 1.03,1.51 8.47,14.04 10.819,17.22 1.521,2.03 11.98,21.44 22.19,35.75 5.223,7.37 13.053,20.31 19.454,27.89 z"
       id="path623"
       inkscape:connector-curvature="0"
       style="fill:none;stroke:#ffffff;stroke-linecap:round;stroke-linejoin:round;stroke-miterlimit:10" /><path
       stroke-miterlimit="10"
       d="m 2518.884,449.428 c 2.22,-1.61 5.58,-2.77 8.319,-2.49 2.761,0.29 5.051,1.99 6.74,4.09 0.93,1.13 1.83,2.47 2.46,3.78 0.92,1.79 1.601,3.86 1.601,5.92 0,1.859 -0.94,3.64 -1.891,5.189 -0.84,1.34 -2.02,2.45 -3.38,3.311 -2.76,1.729 -6.22,2.71 -9.47,1.83 -4.62,-1.27 -8.98,-4.73 -9.69,-9.7 -0.579,-4.36 1.22,-8.84 4.72,-11.53 0.19,-0.14 0.391,-0.3 0.591,-0.4 z"
       id="path625"
       inkscape:connector-curvature="0"
       style="fill:none;stroke:#ffffff;stroke-linecap:round;stroke-linejoin:round;stroke-miterlimit:10" /><g
       id="g627"><path
         stroke-miterlimit="10"
         d="m 2515.063,443.338 c -1.86,1.25 -5.271,-0.54 -7.59,-3.97 l -59.95,-88.86 c -2.32,-3.44 -2.7,-7.27 -0.83,-8.52 1.86,-1.25 5.28,0.54 7.6,3.98 l 59.931,88.84 c 2.319,3.44 2.7,7.28 0.839,8.53 z"
         id="path629"
         inkscape:connector-curvature="0"
         style="fill:none;stroke:#ffffff;stroke-linecap:round;stroke-linejoin:round;stroke-miterlimit:10" /></g></g><g
     opacity="0.7"
     id="g631"><path
       fill-rule="evenodd"
       clip-rule="evenodd"
       fill="none"
       stroke="#FFFFFF"
       stroke-linejoin="round"
       stroke-miterlimit="10"
       d="   M841.523,382.688c-1.872-2.783-4.807-1.979-5.37-1.796l-13.38,4.342c-9.015,2.925-6.175,10.037-6.175,10.037 M816.78,396.229   c0.949,3.142,3.411,10.818,4.64,13.83c1.85,4.535,6.478,2.443,10.742,1.059c14.731-4.78-4.606,1.381,10.188-3.212   c2.311-0.716,3.968-1.795,4.866-3.733c0.346-0.757,0.228-4.107-0.002-4.816c-1.682-5.185-2.051-6.32-2.341-7.215"
       id="path633" /><g
       id="g635"><path
         fill="none"
         stroke="#FFFFFF"
         stroke-miterlimit="10"
         d="M838.042,404.664c-0.771,0.25-1.624,0.26-2.434-0.023l-8.667-3.042    c-0.818-0.288-2.858-1.246-2.858-1.246s1.783-5.718,2.946-6.007c0.125-0.031,0.265-0.043,0.413-0.045    c0.679-0.007,1.548,0.265,2.14,0.473l5.359,1.881l8.295-18.558c0.413-0.92,0.703-1.765,1.584-2.119    c0.89-0.357,2.375-0.219,3.319,0.166c0.877,0.359,2.152,0.756,2.519,1.537c0.419,0.896-0.166,2.216-0.607,3.204l-9.717,21.736    C839.887,403.623,839.033,404.342,838.042,404.664z"
         id="path637" /></g></g><g
     opacity="0.7"
     id="g639"><path
       fill="none"
       stroke="#FFFFFF"
       d="M616.173,308.048c1.172-2.872,3.649-8.573,7.88-10.434   c7.466-3.285,13.859-0.882,17.078,6.435c1.686,3.833,0.952,8.253,0.169,11.029c-0.441,1.565-0.898,2.607-0.943,2.724l-0.783,1.929   l-8.861,21.859 M595.333,316.166c0.844-3.574,3.496-7.453,7.845-9.367c4.177-1.838,9.826-0.029,12.758,1.043 M630.187,341.05   l-2.744-1.098l-0.952-0.353l-0.817-0.301l-18.675-6.879c-0.277-0.087-7.979-2.689-10.615-8.682   c-1.08-2.451-1.511-4.793-1.326-6.947"
       id="path641" /></g><radialGradient
     id="SVGID_16_"
     cx="1279.6445"
     cy="302.5"
     r="413.9998"
     gradientTransform="matrix(1 0 0 0.7973 0 61.3262)"
     gradientUnits="userSpaceOnUse"><stop
       offset="0"
       style="stop-color:#FFFFFF"
       id="stop652" /><stop
       offset="0.9504"
       style="stop-color:#FFFFFF;stop-opacity:0"
       id="stop654" /></radialGradient><g
     inkscape:groupmode="layer"
     id="layer1"
     inkscape:label="Layer 1"
     sodipodi:insensitive="true"><rect
       style="opacity:0.12000002;fill:url(#SVGID_16_)"
       x="-0.35499999"
       y="-80"
       width="2560"
       height="765"
       id="rect656" /></g><g
     inkscape:groupmode="layer"
     id="layer2"
     inkscape:label="Layer 2" /><text
     xml:space="preserve"
     style="font-style:normal;font-weight:normal;font-size:219.40924072px;line-height:125%;font-family:sans-serif;letter-spacing:0px;word-spacing:0px;opacity:0.4;fill:#e6e6e6;fill-opacity:1;stroke:none;stroke-width:1px;stroke-linecap:butt;stroke-linejoin:miter;stroke-opacity:1;"
     x="704.27252"
     y="302.35056"
     id="text4047"
     sodipodi:linespacing="125%"
     transform="scale(1.0693822,0.93511937)"><tspan
       sodipodi:role="line"
       id="tspan4049"
       x="704.27252"
       y="302.35056"
       style="font-style:normal;font-variant:normal;font-weight:300;font-stretch:normal;font-family:Ubuntu;-inkscape-font-specification:'Ubuntu Light';fill:#e6e6e6;"></tspan></text>
<polygon
     points="109.653,140.993 109.653,164.643 174.516,164.643 174.516,188.245 109.653,188.245 109.653,265.25 78.766,265.25 78.766,188.245 13.899,188.245 13.899,164.643 78.766,164.643 78.766,140.993 13.899,140.993 13.899,117.303 64.947,117.303 0,0 38.609,0 94.208,108.163 149.805,0 188.415,0 123.427,117.303 174.516,117.303 174.516,140.993 "
     id="polygon4164"
     transform="matrix(0.53590246,-0.10806369,0.10836995,0.53742121,1650.3634,79.260737)"
     style="opacity:0.4;fill:#ffffff" /><path
     inkscape:connector-curvature="0"
     d="m 1662.5499,689.86754 146.8323,0 0,-77.31296 -146.8323,0 0,77.31296 z m 10.488,-51.54197 c 11.584,0 20.9761,-7.69264 20.9761,-17.18066 l 83.9041,0 c 0,9.48802 9.392,17.18066 20.976,17.18066 l 0,25.77098 c -11.584,0 -20.976,7.69264 -20.976,17.18066 l -83.9041,0 c 0,-9.48802 -9.3921,-17.18066 -20.9761,-17.18066 l 0,-25.77098 z m 36.7081,12.88549 c 0,-11.86217 11.7377,-21.47582 26.22,-21.47582 14.4823,0 26.2201,9.61392 26.2201,21.47582 0,11.8619 -11.7378,21.47582 -26.2201,21.47582 -14.4823,0 -26.22,-9.61365 -26.22,-21.47582 z m 120.6122,-55.83714 0,85.90329 -10.488,0 0,-77.31296 -146.8323,0 0,-8.59033 157.3203,0 z"
     id="path5758"
     style="opacity:0.2;fill:#ffffff" /><text
     xml:space="preserve"
     style="font-style:normal;font-weight:normal;font-size:219.40924072px;line-height:125%;font-family:sans-serif;letter-spacing:0px;word-spacing:0px;opacity:0.4;fill:#e6e6e6;fill-opacity:1;stroke:none;stroke-width:1px;stroke-linecap:butt;stroke-linejoin:miter;stroke-opacity:1"
     x="654.91144"
     y="397.97519"
     id="text4047-2"
     sodipodi:linespacing="125%"
     transform="matrix(1.0306757,0.28510671,-0.24931105,0.90127257,0,0)"><tspan
       sodipodi:role="line"
       id="tspan4049-2"
       x="654.91144"
       y="397.97519"
       style="font-style:normal;font-variant:normal;font-weight:300;font-stretch:normal;font-family:Ubuntu;-inkscape-font-specification:'Ubuntu Light';fill:#e6e6e6"></tspan></text>
<path
     inkscape:connector-curvature="0"
     d="m 1820.1675,543.97745 c -7.5882,0 -15.6823,-3.44003 -21.247,-10.32008 -11.6353,-13.18676 -11.6353,-34.97359 0,-48.73369 l 85.9999,-97.46738 c 15.6823,-17.77347 41.4823,-17.77347 57.1646,0 15.6823,17.77346 15.6823,47.01368 0,64.78714 l -64.7529,73.38721 -7.0823,-8.02673 64.247,-72.81387 c 11.6353,-13.18676 11.6353,-34.97359 0,-48.73369 -11.6353,-13.18676 -30.8588,-13.18676 -43,0 l -85.9999,97.46738 c -4.047,4.5867 -6.0706,10.32008 -6.0706,16.05345 0,6.30672 2.0236,12.04009 6.0706,16.05346 8.0941,9.1734 20.7412,9.1734 28.8353,0 l 64.247,-72.81387 c 4.047,-4.5867 4.047,-11.46675 0,-16.05345 -4.0471,-4.5867 -10.1177,-4.5867 -14.1647,0 l -43,48.16035 -7.0823,-8.02673 42.9999,-48.73369 c 8.0941,-9.1734 20.7412,-9.1734 28.8353,0 8.0941,9.1734 8.0941,23.50684 0,32.68024 l -64.7529,72.81387 c -5.5647,6.88005 -13.6588,10.32008 -21.247,10.32008 z"
     id="path5820"
     style="opacity:0.3;fill:#ffffff" /><g
     transform="matrix(0.04497058,-0.1384052,0.1384052,0.04497058,1109.5939,420.63793)"
     id="g3069"
     style="opacity:0.2;fill:#ffffff;fill-opacity:1"><g
       id="g5909"
       transform="matrix(0.59426195,-0.20486263,0.25691147,0.62846531,3156.9764,3597.8813)"><path
         style="fill:#ffffff;fill-opacity:1;fill-rule:nonzero;stroke:none;stroke-width:2;stroke-linecap:round;stroke-linejoin:round;stroke-miterlimit:4;stroke-dasharray:none;stroke-dashoffset:0;stroke-opacity:1"
         d="M 376.15009,3535.8536 -432.86689,2948.0683 59.809394,3120.6084 376.15009,3535.8536 Z"
         id="path3071"
         sodipodi:nodetypes="cccc"
         inkscape:connector-curvature="0" /><path
         sodipodi:nodetypes="cccc"
         id="path3073"
         d="m 567.13309,2948.0683 -999.99998,0 492.621484,185.6628 507.378496,-185.6628 z"
         style="fill:#ffffff;fill-opacity:1;fill-rule:nonzero;stroke:none;stroke-width:2;stroke-linecap:round;stroke-linejoin:round;stroke-miterlimit:4;stroke-dasharray:none;stroke-dashoffset:0;stroke-opacity:1"
         inkscape:connector-curvature="0" /><path
         sodipodi:nodetypes="cccc"
         id="path3075"
         d="M -241.88386,3535.8536 567.13309,2948.0683 58.470094,3089.8646 -241.88386,3535.8536 Z"
         style="fill:#ffffff;fill-opacity:1;fill-rule:nonzero;stroke:none;stroke-width:2;stroke-linecap:round;stroke-linejoin:round;stroke-miterlimit:4;stroke-dasharray:none;stroke-dashoffset:0;stroke-opacity:1"
         inkscape:connector-curvature="0" /><path
         style="fill:#ffffff;fill-opacity:1;fill-rule:nonzero;stroke:none;stroke-width:2;stroke-linecap:round;stroke-linejoin:round;stroke-miterlimit:4;stroke-dasharray:none;stroke-dashoffset:0;stroke-opacity:1"
         d="m 376.15009,3535.8536 -309.016996,-951.0565 -52.097,544.0163 361.113996,407.0402 z"
         id="path3077"
         sodipodi:nodetypes="cccc"
         inkscape:connector-curvature="0" /><path
         sodipodi:nodetypes="cccc"
         id="path3079"
         d="m -241.88389,3535.8536 309.016984,-951.0565 32.421,539.0973 -341.437984,411.9592 z"
         style="fill:#ffffff;fill-opacity:1;fill-rule:nonzero;stroke:none;stroke-width:2;stroke-linecap:round;stroke-linejoin:round;stroke-miterlimit:4;stroke-dasharray:none;stroke-dashoffset:0;stroke-opacity:1"
         inkscape:connector-curvature="0" /></g></g></svg>