<?xml version="1.0" encoding="UTF-8" standalone="no"?>
<!-- Generator: Adobe Illustrator 16.0.0, SVG Export Plug-In . SVG Version: 6.00 Build 0)  -->

<svg
   xmlns:dc="http://purl.org/dc/elements/1.1/"
   xmlns:cc="http://creativecommons.org/ns#"
   xmlns:rdf="http://www.w3.org/1999/02/22-rdf-syntax-ns#"
   xmlns:svg="http://www.w3.org/2000/svg"
   xmlns="http://www.w3.org/2000/svg"
   xmlns:sodipodi="http://sodipodi.sourceforge.net/DTD/sodipodi-0.dtd"
   xmlns:inkscape="http://www.inkscape.org/namespaces/inkscape"
   version="1.1"
   id="kreditorzak"
   x="0px"
   y="0px"
   width="128px"
   height="128px"
   viewBox="0 0 128 128"
   enable-background="new 0 0 128 128"
   xml:space="preserve"
   inkscape:version="0.91 r13725"
   sodipodi:docname="kreditor.svg"><metadata
     id="metadata4222"><rdf:RDF><cc:Work
         rdf:about=""><dc:format>image/svg+xml</dc:format><dc:type
           rdf:resource="http://purl.org/dc/dcmitype/StillImage" /><dc:title /></cc:Work></rdf:RDF></metadata><defs
     id="defs4220" /><sodipodi:namedview
     pagecolor="#ffffff"
     bordercolor="#666666"
     borderopacity="1"
     objecttolerance="10"
     gridtolerance="10"
     guidetolerance="10"
     inkscape:pageopacity="0"
     inkscape:pageshadow="2"
     inkscape:window-width="1870"
     inkscape:window-height="1048"
     id="namedview4218"
     showgrid="false"
     inkscape:zoom="3.3789063"
     inkscape:cx="-72.250389"
     inkscape:cy="59.996844"
     inkscape:window-x="0"
     inkscape:window-y="0"
     inkscape:window-maximized="1"
     inkscape:current-layer="g4200" /><g
     id="g4200"><path
       d="m 91.569648,14.034595 0.05459,0 c 0.428427,-4.6115364 2.105767,-0.213916 3.734032,1.221191 0.919865,1.162104 1.27846,2.560569 1.091363,4.205242 -0.272835,1.349222 -0.132524,2.60981 0.428757,3.781762 1.005614,0.984834 2.06579,1.861337 3.18056,2.619659 1.15372,0.896199 1.85531,2.176483 2.11256,3.840852 0.0468,1.753005 -0.63143,2.826474 -2.03461,3.220408 -1.816351,0.453023 -3.656081,0.748474 -5.511409,0.876502 -1.364198,0.17727 -2.689432,0.324995 -3.999068,0.728777 -0.600255,-0.955289 -1.013692,1.305268 -1.801033,0.546946 0.374183,-0.571204 -1.518196,-0.234346 -1.260949,-0.933578 0.420957,-1.13256 1.559643,-6.660247 0.577417,-7.881441 -0.88089,-1.093166 -0.633624,0.601 -1.257262,1.132811 -0.241659,0.206815 -2.182731,3.310552 -3.281892,4.905983 -1.457769,-0.718928 -2.931112,-4.979706 -4.287524,-5.422881 -0.459932,-0.147725 -5.211195,3.453213 -3.763019,1.144925 -2.814379,-17.39372 1.006017,-26.8717968 16.017487,-13.987158 z"
       id="path4202"
       style="fill:#a9a9a9"
       inkscape:connector-curvature="0"
       sodipodi:nodetypes="cccccccccccccccccc" /><path
       d="m 74.23253,34.765351 c -0.171499,-0.374237 -0.163705,-0.778018 -0.05456,-1.142407 0.116933,-0.364389 0.335206,-0.689384 0.584661,-0.915896 0.67041,-0.600748 1.434366,-0.88635 2.221709,-0.974985 1.091365,-0.128029 2.229503,0.137876 3.2663,0.561355 1.574685,0.659839 2.876528,1.674218 4.342077,2.599962 0.880887,0.551507 2.346436,1.516644 2.767393,2.836322 0.04682,0.137877 0.08576,0.275753 0.101292,0.41363 0.155911,1.201498 -1.005618,2.25527 -2.073597,2.501479 -0.358591,0.08864 -0.709387,0.06894 -0.990024,-0.05909 -2.876528,-2.324208 -6.025897,-4.047667 -9.401335,-5.04235 -0.226069,-0.216663 -0.569069,-0.374237 -0.763956,-0.778019 z"
       id="path4204"
       inkscape:connector-curvature="0"
       style="fill:#ed6c30" /><path
       d="m 89.308961,116.6937 c -12.558495,3.90979 -30.020344,3.63403 -42.485297,0.51211 -11.669811,-2.91511 -20.611221,-11.61119 -19.58222,-28.727611 1.0368,-17.313382 10.126321,-33.632082 22.622453,-40.811522 12.090771,-6.952928 28.31314,-10.350605 36.856973,5.436284 2.128159,3.929488 6.1896,12.645269 6.376697,16.929297 0.01553,0.344692 0.03118,0.64999 0.08576,0.945441 0.01553,1.073469 0.358585,2.156786 1.1927,2.954502 5.371077,5.140833 9.292203,11.955885 10.009383,21.30196 0.85751,11.138479 -7.483649,19.095929 -15.076438,21.459539 z"
       id="path4206"
       style="fill:#a9a9a9"
       inkscape:connector-curvature="0" /><g
       id="g4208"
       transform="matrix(0.77954683,0,0,0.98483403,16.179681,1.0446344)"><g
         id="g4210"
         style="fill:#000000"><path
           d="m 118.95,83.5 c -1.45,-3.12 -3.45,-5.94 -5.79,-8.45 -2.19,-2.33 -5.34,-4.11 -6.85,-7.01 -0.2,-0.38 -0.37,-0.78 -0.52,-1.19 -0.68,-1.85 -0.95,-3.92 -1.64,-5.74 -2.01,-5.3 -4.85,-9.94 -8.32,-13.84 1.88,-1.45 2.47,-3.81 2.33,-6.18 0.81,-0.14 1.71,-0.23 2.7,-0.33 l 0.35,-0.03 c 2.64,-0.15 5.31,-0.49 7.94,-1.01 l 0.17,-0.04 c 5.32,-1.18 8.64,-5.43 8.46,-10.83 -0.01,-0.39 -0.06,-0.78 -0.13,-1.17 -0.73,-3.78 -2.85,-6.84 -6.14,-8.86 l -0.38,-0.21 c -0.21,-0.11 -0.42,-0.23 -0.63,-0.35 0.11,-3.44 -1.16,-6.63 -3.64,-9.12 -0.37,-0.37 -0.78,-0.7 -1.22,-0.98 -2.52,-1.64 -5.31,-2.47 -8.28,-2.47 -0.29,0 -0.57,0.01 -0.86,0.02 -0.94,0.01 -1.72,0.08 -2.41,0.14 -0.45,0.04 -0.88,0.07 -1.21,0.08 L 92.53,5.57 C 92.29,5.27 92.04,5 91.76,4.75 89.81,2.96 86.75,0.58 82.65,0.58 l 0,0 c -3.31,0 -6.36,1.59 -8.57,4.47 -5.62,7.31 -3.71,16.06 -2.29,22.04 -0.74,0.42 -1.43,0.92 -2.04,1.57 -0.9,0.99 -1.94,2.59 -2.23,4.17 -0.07,0.41 -0.07,0.82 -0.03,1.21 -3.39,-0.09 -6.87,0.2 -10.42,0.96 -17.26,3.73 -32.5,15.42 -41.84,30.26 -1.78,2.82 -3.26,5.84 -4.45,8.96 -3.08,8.08 -5.81,19.04 -3.85,27.67 3.45,15.17 18.81,21.14 32.61,23.38 11.8,1.92 24.09,2.48 36.01,1.98 16.75,-0.7 41.87,-4.42 45.59,-24.55 1.2,-6.46 0.58,-13.21 -2.19,-19.2 z M 80.02,9.61 c 0.85,-1.11 1.74,-1.54 2.64,-1.54 1.37,0 2.75,1.01 4.05,2.19 0.91,1.13 2.01,2.02 3.31,2.67 2.179425,0.848861 4.567712,0.27269 6.69,0.26 l 0.07,0 0.59,-0.02 c 4.04325,0.184116 5.94704,2.827829 5.6,5.53 -0.35,1.37 -0.17,2.65 0.55,3.84 1.29,1 2.65,1.89 4.08,2.66 1.48,0.91 2.38,2.21 2.71,3.9 0.06,1.78 -0.81,2.87 -2.61,3.27 -2.33,0.46 -4.69,0.76 -7.07,0.89 -1.75,0.18 -3.45,0.33 -5.13,0.74 -0.77,-0.97 -1.68,-1.83 -2.69,-2.6 0.48,-0.58 -0.618769,2.917417 -0.288769,2.207414 C 94.967379,23.860985 92.081313,21.640737 86.49,27.98 84.62,27.25 82.73,26.68 80.99,26.23 80.4,26.08 79.81,25.98 79.2,25.89 77.93,20.56 76.41,14.3 80.02,9.61 Z m -5.55,24.63 c -0.22,-0.38 -0.21,-0.79 -0.07,-1.16 0.15,-0.37 0.43,-0.7 0.75,-0.93 0.86,-0.61 1.84,-0.9 2.85,-0.99 1.4,-0.13 2.86,0.14 4.19,0.57 2.02,0.67 3.69,1.7 5.57,2.64 1.13,0.56 3.01,1.54 3.55,2.88 0.06,0.14 0.11,0.28 0.13,0.42 0.2,1.22 -1.29,2.29 -2.66,2.54 -0.46,0.09 -0.91,0.07 -1.27,-0.06 -3.69,-2.36 -7.73,-4.11 -12.06,-5.12 -0.29,-0.22 -0.73,-0.38 -0.98,-0.79 z m 19.34,83.19 C 77.7,121.4 55.3,121.12 39.31,117.95 24.34,114.99 12.87,106.16 14.19,88.78 15.52,71.2 27.18,54.63 43.21,47.34 c 15.51,-7.06 36.32,-10.51 47.28,5.52 2.73,3.99 7.94,12.84 8.18,17.19 0.02,0.35 0.04,0.66 0.11,0.96 0.02,1.09 0.46,2.19 1.53,3 6.89,5.22 11.92,12.14 12.84,21.63 1.1,11.31 -9.6,19.39 -19.34,21.79 z"
           id="path4212"
           inkscape:connector-curvature="0"
           style="fill:#000000"
           sodipodi:nodetypes="ccccccccccccccccccscccccccccccccccccccccscccccccccccccccccccccccccccccccccccccccc" /></g></g><path
       id="path4235"
       style="font-style:normal;font-variant:normal;font-weight:normal;font-stretch:normal;font-size:70px;line-height:125%;font-family:Roboto;-inkscape-font-specification:Roboto;letter-spacing:0px;word-spacing:0px;fill:#000000;fill-opacity:1;stroke:none;stroke-width:1px;stroke-linecap:butt;stroke-linejoin:miter;stroke-opacity:1"
       d="m 62.052451,85.418878 -4.853825,5.044706 0,13.416186 -5.235586,0 0,-39.703192 5.235586,0 0,19.633449 17.642836,-19.633449 6.326333,0 -15.624953,17.53376 16.852044,22.169432 -6.271797,0 -14.070638,-18.460892 z"
       inkscape:connector-curvature="0" /></g></svg>
